<svg width="641" height="254" viewBox="0 0 641 254" fill="none" xmlns="http://www.w3.org/2000/svg">
<rect width="211.926" height="203.096" rx="20" transform="matrix(1 -8.74228e-08 -8.74228e-08 -1 1.74316 253.18)" fill="url(#paint0_linear_121_39595)"/>
<path d="M572.527 70.084C572.527 59.0383 563.573 50.084 552.527 50.084H20.0002C8.95459 50.084 0.000244141 59.0383 0.000244141 70.084V233.16C0.000244141 244.205 8.95459 253.16 20.0002 253.16H552.527C563.573 253.16 572.527 244.206 572.527 233.16V70.084Z" fill="url(#paint1_linear_121_39595)"/>
<rect width="211.926" height="203.096" rx="20" transform="matrix(1 -8.74228e-08 -8.74228e-08 -1 1.74414 253.18)" fill="url(#paint2_linear_121_39595)"/>
<path d="M640.406 70.084C640.406 59.0383 631.452 50.084 620.406 50.084H20.0003C8.95459 50.084 0.000305176 59.0383 0.000305176 70.084V233.45C0.000305176 244.495 8.95459 253.45 20.0003 253.45H620.406C631.452 253.45 640.406 244.495 640.406 233.45V70.084Z" fill="url(#paint3_linear_121_39595)"/>
<g opacity="0.3">
<path d="M67.2405 222.435L67.2406 222.435C67.954 222.586 68.4629 223.218 68.4589 223.948L68.4382 227.682L68.4382 227.684L68.4181 233.961C68.4147 235.014 67.6189 235.896 66.5716 236.007C65.2035 236.152 63.9928 236.434 63.0831 236.783C63.083 236.783 63.083 236.783 63.0829 236.783C63.9649 236.789 65.156 236.788 66.7587 236.787C67.4469 236.787 68.211 236.786 69.0591 236.786H75.0227C74.8606 236.722 74.6849 236.659 74.495 236.598L74.495 236.598C74.0621 236.458 73.3517 236.295 72.6325 236.165C71.9001 236.034 71.2634 235.957 70.9611 235.957C70.2304 235.957 69.6381 235.364 69.6381 234.634V227.711L69.6382 224.304C69.6382 223.396 70.2384 222.599 71.11 222.347C72.3507 221.99 73.6224 220.622 74.7391 218.631C75.8226 216.699 76.6243 214.423 77.0379 212.665C77.132 212.265 77.2008 211.542 77.2164 210.768C77.2291 210.139 77.2046 209.568 77.156 209.191H69.0475H60.9193C60.9084 209.295 60.898 209.422 60.8897 209.574C60.8707 209.922 60.8654 210.338 60.8739 210.766C60.8917 211.655 60.9667 212.466 61.057 212.816C61.5132 214.582 62.4113 216.908 63.5724 218.858C64.1523 219.831 64.7799 220.681 65.4262 221.315C66.079 221.955 66.6922 222.319 67.2405 222.435Z" fill="white" stroke="white" stroke-width="2"/>
<path d="M24.4655 217.759L24.4655 217.759C25.3175 215.126 26.4793 213.124 27.9878 211.728C29.482 210.344 31.3765 209.498 33.809 209.268C33.81 209.268 33.811 209.268 33.8119 209.268L34.6788 209.191H34.933L37.2437 209.323L37.5884 209.366C37.5884 209.366 37.5884 209.366 37.5884 209.366C41.2595 209.826 43.7966 211.256 45.7178 213.855C47.0888 215.71 48.1289 218.321 48.5696 220.999C47.8861 220.638 47.1761 220.439 46.4616 220.444C45.4131 220.451 44.4897 220.896 43.764 221.672C42.8805 220.918 41.9221 220.442 40.8754 220.419C39.6556 220.393 38.5624 220.987 37.581 221.928L24.4655 217.759ZM24.4655 217.759C24.1935 218.6 23.9556 219.583 23.7943 220.484C23.7611 220.67 23.7318 220.848 23.7063 221.019M24.4655 217.759L23.7063 221.019M23.7063 221.019C24.3717 220.65 25.0605 220.434 25.7771 220.427C26.9346 220.415 27.9551 220.948 28.8626 221.806C29.7776 221.017 30.7412 220.499 31.7845 220.443C33.0151 220.377 34.0919 220.965 35.054 221.896L23.7063 221.019ZM28.4607 222.172L28.4608 222.172L28.4607 222.172ZM40.9129 234.367C40.9128 234.367 40.9136 234.368 40.9152 234.37C40.9137 234.368 40.9129 234.367 40.9129 234.367ZM41.0367 235.003C41.0367 234.964 41.0358 234.925 41.0339 234.888L35.054 221.896C35.6334 222.456 35.9615 223.227 35.9639 224.033L35.9782 228.825L35.9933 233.858C35.9941 234.132 36.0447 234.404 36.1427 234.66L36.1427 234.66C36.4084 235.354 36.7277 235.828 37.08 236.149C37.4244 236.462 37.8435 236.667 38.3821 236.761C38.719 236.82 39.1881 236.783 39.6681 236.637C40.1518 236.489 40.5319 236.266 40.737 236.057C40.8704 235.922 41.0363 235.523 41.0367 235.003Z" fill="white" stroke="white" stroke-width="2"/>
<path d="M107.364 211.021L107.038 210.19C106.825 210.725 106.291 212.068 105.717 213.511C105.418 214.262 105.143 214.959 104.927 215.51C105.687 215.743 106.239 216.449 106.239 217.285V224.505V230.847C106.239 231.252 106.568 231.58 106.973 231.58C107.38 231.58 107.711 231.251 107.712 230.844L107.728 225.728C107.74 221.96 107.75 218.329 107.75 217.657C107.75 217.657 107.75 217.657 107.75 217.657L107.749 217.33C107.749 216.456 108.339 215.72 109.142 215.498C109.003 215.146 108.842 214.74 108.67 214.31L108.67 214.31C108.148 213.003 107.56 211.523 107.364 211.021C107.364 211.021 107.364 211.021 107.364 211.021ZM94.935 212.327L95.8644 211.958L94.935 212.327C94.6295 211.558 94.3396 210.834 94.0862 210.207C93.8249 210.853 93.5313 211.584 93.2381 212.317C92.8025 213.405 92.3686 214.497 92.044 215.323C92.0187 215.387 91.9941 215.45 91.9702 215.511C92.7291 215.743 93.2809 216.45 93.2809 217.285V224.505V230.826C93.2809 231.242 93.6188 231.58 94.0356 231.58C94.4525 231.58 94.7904 231.242 94.7904 230.826V224.505V217.33C94.7904 216.455 95.3817 215.718 96.1864 215.497C96.1762 215.471 96.1657 215.444 96.1552 215.417C95.8426 214.619 95.4107 213.525 94.935 212.327ZM101.01 236.788H112.479C112.948 236.788 113.328 236.408 113.328 235.939C113.328 235.47 112.948 235.09 112.479 235.09H101.01H89.5405C89.0715 235.09 88.6914 235.47 88.6914 235.939C88.6914 236.408 89.0715 236.788 89.5405 236.788H101.01Z" fill="white" stroke="white" stroke-width="2"/>
</g>
<g clip-path="url(#clip0_121_39595)">
<path d="M147.957 16.1214C146.706 13.9804 143.707 12.6796 141.656 12.5845C140.934 12.5461 137.964 13.9886 134.107 17.0364C134.327 20.4565 133.107 25.7175 127.281 31.1147C124.76 33.4505 121.042 35.9683 117.099 38.3372C115.244 42.0611 113.611 46.2152 112.36 50.8235C112.36 50.8235 133.627 41.2096 141.964 33.4758C150.301 25.742 149.198 18.2724 147.956 16.1322L147.957 16.1214Z" fill="url(#paint4_linear_121_39595)"/>
<path d="M102.535 48.391C102.535 48.391 110.008 8.47425 120.647 6.05662C128.423 6.76964 133.111 10.9195 141.656 12.585C130.66 16.4246 117.36 35.5535 112.361 50.8132C104.268 51.8397 102.536 48.3802 102.536 48.3802L102.535 48.391Z" fill="url(#paint5_linear_121_39595)"/>
<path d="M103.483 52.3383C103.483 52.3383 90.5862 9.55397 62.6191 7.13672C82.4588 15.7994 91.6617 49.3814 91.6617 49.3814L103.484 52.3275L103.483 52.3383Z" fill="url(#paint6_linear_121_39595)"/>
<path d="M61.7308 6.47773C61.7308 6.47773 38.6004 6.53276 48.9634 32.7146C57.5378 54.3922 103.485 52.3276 103.485 52.3276C103.485 52.3276 98.285 50.3234 91.0406 48.6038C81.4497 46.3312 72.9824 40.8697 69.1789 36.2951C54.4834 18.6358 66.9585 5.51583 79.2561 13.9725C72.1434 6.55458 61.7308 6.47773 61.7308 6.47773Z" fill="url(#paint7_linear_121_39595)"/>
<path d="M99.1373 41.2288C99.1373 41.2288 108.022 37.7874 114.685 44.767C118.499 48.9957 115.542 51.4144 112.314 52.5213C109.085 53.6281 103.885 52.9998 100.875 52.4023C102.706 49.9981 99.1373 41.2288 99.1373 41.2288Z" fill="url(#paint8_linear_121_39595)"/>
</g>
<defs>
<linearGradient id="paint0_linear_121_39595" x1="215.744" y1="77.1499" x2="44.4604" y2="88.5943" gradientUnits="userSpaceOnUse">
<stop stop-color="#00458A"/>
<stop offset="1" stop-color="#00458A" stop-opacity="0"/>
</linearGradient>
<linearGradient id="paint1_linear_121_39595" x1="12.4472" y1="151.622" x2="491.185" y2="200.486" gradientUnits="userSpaceOnUse">
<stop offset="0.0483539" stop-color="#DA354B"/>
<stop offset="0.289526" stop-color="#DA354B" stop-opacity="0.643435"/>
<stop offset="1" stop-color="#DA354B" stop-opacity="0"/>
</linearGradient>
<linearGradient id="paint2_linear_121_39595" x1="215.744" y1="77.1499" x2="44.4604" y2="88.5943" gradientUnits="userSpaceOnUse">
<stop stop-color="#00458A"/>
<stop offset="1" stop-color="#00458A" stop-opacity="0"/>
</linearGradient>
<linearGradient id="paint3_linear_121_39595" x1="13.923" y1="151.767" x2="548.056" y2="212.662" gradientUnits="userSpaceOnUse">
<stop offset="0.0483539" stop-color="#DA354B"/>
<stop offset="0.289526" stop-color="#DA354B" stop-opacity="0.643435"/>
<stop offset="1" stop-color="#DA354B" stop-opacity="0"/>
</linearGradient>
<linearGradient id="paint4_linear_121_39595" x1="147.013" y1="33.3692" x2="75.2546" y2="31.4904" gradientUnits="userSpaceOnUse">
<stop offset="0.0483539" stop-color="#DA354B"/>
<stop offset="0.166667" stop-color="#DA354B" stop-opacity="0.643435"/>
<stop offset="1" stop-color="#DA354B" stop-opacity="0"/>
</linearGradient>
<linearGradient id="paint5_linear_121_39595" x1="139.371" y1="30.5831" x2="62.9518" y2="28.3352" gradientUnits="userSpaceOnUse">
<stop offset="0.0483539" stop-color="#DA354B"/>
<stop offset="0.166667" stop-color="#DA354B" stop-opacity="0.643435"/>
<stop offset="1" stop-color="#DA354B" stop-opacity="0"/>
</linearGradient>
<linearGradient id="paint6_linear_121_39595" x1="104.249" y1="31.504" x2="9.94839" y2="30.5355" gradientUnits="userSpaceOnUse">
<stop offset="0.0483539" stop-color="#DA354B"/>
<stop offset="0.166667" stop-color="#DA354B" stop-opacity="0.643435"/>
<stop offset="1" stop-color="#DA354B" stop-opacity="0"/>
</linearGradient>
<linearGradient id="paint7_linear_121_39595" x1="83.7863" y1="26.4432" x2="3.55536" y2="-10.2402" gradientUnits="userSpaceOnUse">
<stop offset="0.0483539" stop-color="#DA354B"/>
<stop offset="0.289526" stop-color="#DA354B" stop-opacity="0.643435"/>
<stop offset="1" stop-color="#DA354B" stop-opacity="0"/>
</linearGradient>
<linearGradient id="paint8_linear_121_39595" x1="116.171" y1="47.6199" x2="78.3101" y2="48.1438" gradientUnits="userSpaceOnUse">
<stop offset="0.0483539" stop-color="#DA354B"/>
<stop offset="0.166667" stop-color="#DA354B" stop-opacity="0.643435"/>
<stop offset="1" stop-color="#DA354B" stop-opacity="0"/>
</linearGradient>
<clipPath id="clip0_121_39595">
<rect width="102.225" height="48.3023" fill="white" transform="translate(47.9619) rotate(4.76363)"/>
</clipPath>
</defs>
</svg>
