<svg width="800" height="246" viewBox="0 0 800 246" fill="none" xmlns="http://www.w3.org/2000/svg">
<path d="M5.39844 164.474H776.249V0.371063H5.39844V164.474Z" fill="url(#paint0_linear_121_39563)"/>
<rect opacity="0.2" x="748.596" y="13.2812" width="11.1019" height="142.937" fill="url(#paint1_linear_121_39563)"/>
<rect opacity="0.2" x="726.392" y="13.2812" width="11.1019" height="142.937" fill="url(#paint2_linear_121_39563)"/>
<rect opacity="0.2" x="704.188" y="13.2803" width="11.7958" height="142.937" fill="url(#paint3_linear_121_39563)"/>
<rect opacity="0.2" x="682.679" y="13.2812" width="13.1835" height="142.937" fill="url(#paint4_linear_121_39563)"/>
<rect opacity="0.2" x="661.168" y="13.2803" width="10.408" height="142.937" fill="url(#paint5_linear_121_39563)"/>
<rect opacity="0.2" x="639.658" y="13.2812" width="10.408" height="142.937" fill="url(#paint6_linear_121_39563)"/>
<rect opacity="0.2" x="617.455" y="13.2803" width="11.1019" height="142.937" fill="url(#paint7_linear_121_39563)"/>
<rect opacity="0.2" x="596.639" y="13.2812" width="10.408" height="142.937" fill="url(#paint8_linear_121_39563)"/>
<rect opacity="0.2" x="574.436" y="13.2812" width="12.4896" height="142.937" fill="url(#paint9_linear_121_39563)"/>
<rect opacity="0.2" x="552.925" y="13.2803" width="10.408" height="142.937" fill="url(#paint10_linear_121_39563)"/>
<rect opacity="0.2" x="531.415" y="13.2812" width="10.408" height="142.937" fill="url(#paint11_linear_121_39563)"/>
<rect opacity="0.2" x="508.518" y="13.2803" width="11.7958" height="142.937" fill="url(#paint12_linear_121_39563)"/>
<rect opacity="0.2" x="488.677" y="13.2803" width="10.408" height="142.937" fill="url(#paint13_linear_121_39563)"/>
<rect opacity="0.2" x="466.473" y="13.2812" width="12.4896" height="142.937" fill="url(#paint14_linear_121_39563)"/>
<rect opacity="0.2" x="444.963" y="13.2803" width="10.408" height="142.937" fill="url(#paint15_linear_121_39563)"/>
<rect opacity="0.2" x="423.453" y="13.2803" width="10.408" height="142.937" fill="url(#paint16_linear_121_39563)"/>
<rect opacity="0.2" x="400.556" y="13.2812" width="11.7958" height="142.937" fill="url(#paint17_linear_121_39563)"/>
<path d="M391.121 161H379.914H0V173.605H175.92L211.653 204H379.914H391.121H576.191L595.129 173.605H800V161H391.121Z" fill="url(#paint18_linear_121_39563)"/>
<path d="M695.181 166.522V197.434C695.181 198.574 695.65 199.606 696.387 200.343C697.138 201.094 698.17 201.549 699.309 201.549C700.864 201.549 702.232 200.691 702.915 199.405C703.237 198.828 703.425 198.145 703.425 197.434V166.522H695.181Z" fill="url(#paint19_linear_121_39563)"/>
<path d="M620.301 169.41V200.322C620.301 201.461 620.77 202.493 621.507 203.231C622.258 203.981 623.29 204.437 624.429 204.437C625.984 204.437 627.352 203.579 628.035 202.292C628.357 201.716 628.545 201.032 628.545 200.322V169.41H620.301Z" fill="url(#paint20_linear_121_39563)"/>
<path d="M730.502 207.369C730.502 224.608 716.521 238.589 699.295 238.589C685.636 238.589 674.027 229.809 669.805 217.584C668.866 214.876 668.277 212.007 668.129 209.032C668.102 208.482 668.089 207.932 668.089 207.369C668.089 206.806 668.089 206.217 668.142 205.654C668.29 202.664 668.88 199.796 669.831 197.101C674.067 184.903 685.663 176.149 699.295 176.149C716.534 176.149 730.502 190.131 730.502 207.356V207.369Z" fill="url(#paint21_linear_121_39563)"/>
<path d="M594.286 199.306C594.431 198.762 594.574 198.231 594.755 197.711C595.667 194.874 596.979 192.256 598.587 189.883C605.829 179.167 619.315 173.691 632.509 177.226C649.16 181.688 659.034 198.808 654.572 215.459C650.11 232.111 633.016 241.991 616.365 237.529C603.184 233.997 594.249 222.541 593.328 209.665C593.106 206.817 593.278 203.893 593.91 200.967C594.017 200.413 594.156 199.84 594.302 199.296L594.286 199.306Z" fill="url(#paint22_linear_121_39563)"/>
<path d="M744.149 168.628V193.427C744.149 197.784 740.623 201.309 736.267 201.309H733.68C731.937 184.848 718.009 172.02 701.092 172.033H622.594C605.677 172.033 591.736 184.848 590.006 201.309H588.009C583.652 201.309 580.127 197.784 580.127 193.427V168.628C580.127 164.272 583.652 160.746 588.009 160.746H736.267C740.623 160.746 744.149 164.272 744.149 168.628Z" fill="url(#paint23_linear_121_39563)"/>
<path d="M599.334 211.933C601.854 225.794 615.134 234.988 628.995 232.468C642.857 229.948 652.051 216.668 649.531 202.807C647.01 188.946 633.731 179.752 619.87 182.272C606.008 184.792 596.814 198.072 599.334 211.933Z" fill="url(#paint24_linear_121_39563)"/>
<path d="M708.99 230.979C722.022 225.626 728.247 210.722 722.894 197.69C717.54 184.658 702.636 178.434 689.605 183.787C676.573 189.14 670.348 204.044 675.701 217.076C681.054 230.107 695.958 236.332 708.99 230.979Z" fill="url(#paint25_linear_121_39563)"/>
<path d="M709.041 207.073C709.041 201.685 704.671 197.328 699.296 197.328H624.416C619.027 197.328 614.671 201.698 614.671 207.073C614.671 212.449 619.041 216.819 624.416 216.819H699.296C704.685 216.819 709.041 212.449 709.041 207.073ZM689.792 204.942C689.644 205.626 689.55 206.35 689.55 207.073C689.55 207.797 689.644 208.521 689.792 209.205H633.92C634.068 208.521 634.162 207.797 634.162 207.073C634.162 206.35 634.068 205.626 633.92 204.942H689.778H689.792Z" fill="url(#paint26_linear_121_39563)"/>
<g clip-path="url(#clip0_121_39563)">
<rect width="21" height="28" transform="translate(648 194) rotate(-90)" fill="url(#paint27_linear_121_39563)"/>
<path d="M648 194L672.71 194C673.621 194 674.446 192.805 675.036 190.927C675.636 189.015 676 186.385 676 183.483C676 179.522 675.314 176.039 674.285 174.298C673.825 173.478 673.278 173 672.71 173L648 173L648 194Z" fill="url(#paint28_linear_121_39563)"/>
</g>
<defs>
<linearGradient id="paint0_linear_121_39563" x1="727.889" y1="76.7869" x2="87.8035" y2="-20.0962" gradientUnits="userSpaceOnUse">
<stop offset="0.231015" stop-color="#DA354B"/>
<stop offset="0.606591" stop-color="#DA354B" stop-opacity="0.643435"/>
<stop offset="1" stop-color="#DA354B" stop-opacity="0"/>
</linearGradient>
<linearGradient id="paint1_linear_121_39563" x1="754.147" y1="13.2812" x2="754.147" y2="156.218" gradientUnits="userSpaceOnUse">
<stop stop-color="white"/>
<stop offset="1" stop-color="white" stop-opacity="0"/>
</linearGradient>
<linearGradient id="paint2_linear_121_39563" x1="731.943" y1="13.2812" x2="731.943" y2="156.218" gradientUnits="userSpaceOnUse">
<stop stop-color="white"/>
<stop offset="1" stop-color="white" stop-opacity="0"/>
</linearGradient>
<linearGradient id="paint3_linear_121_39563" x1="710.086" y1="13.2803" x2="710.086" y2="156.217" gradientUnits="userSpaceOnUse">
<stop stop-color="white"/>
<stop offset="1" stop-color="white" stop-opacity="0"/>
</linearGradient>
<linearGradient id="paint4_linear_121_39563" x1="689.27" y1="13.2812" x2="689.27" y2="156.218" gradientUnits="userSpaceOnUse">
<stop stop-color="white"/>
<stop offset="1" stop-color="white" stop-opacity="0"/>
</linearGradient>
<linearGradient id="paint5_linear_121_39563" x1="666.372" y1="13.2803" x2="666.372" y2="156.217" gradientUnits="userSpaceOnUse">
<stop stop-color="white"/>
<stop offset="1" stop-color="white" stop-opacity="0"/>
</linearGradient>
<linearGradient id="paint6_linear_121_39563" x1="644.862" y1="13.2812" x2="644.862" y2="156.218" gradientUnits="userSpaceOnUse">
<stop stop-color="white"/>
<stop offset="1" stop-color="white" stop-opacity="0"/>
</linearGradient>
<linearGradient id="paint7_linear_121_39563" x1="623.006" y1="13.2803" x2="623.006" y2="156.217" gradientUnits="userSpaceOnUse">
<stop stop-color="white"/>
<stop offset="1" stop-color="white" stop-opacity="0"/>
</linearGradient>
<linearGradient id="paint8_linear_121_39563" x1="601.843" y1="13.2812" x2="601.843" y2="156.218" gradientUnits="userSpaceOnUse">
<stop stop-color="white"/>
<stop offset="1" stop-color="white" stop-opacity="0"/>
</linearGradient>
<linearGradient id="paint9_linear_121_39563" x1="580.68" y1="13.2812" x2="580.68" y2="156.218" gradientUnits="userSpaceOnUse">
<stop stop-color="white"/>
<stop offset="1" stop-color="white" stop-opacity="0"/>
</linearGradient>
<linearGradient id="paint10_linear_121_39563" x1="558.129" y1="13.2803" x2="558.129" y2="156.217" gradientUnits="userSpaceOnUse">
<stop stop-color="white"/>
<stop offset="1" stop-color="white" stop-opacity="0"/>
</linearGradient>
<linearGradient id="paint11_linear_121_39563" x1="536.619" y1="13.2812" x2="536.619" y2="156.218" gradientUnits="userSpaceOnUse">
<stop stop-color="white"/>
<stop offset="1" stop-color="white" stop-opacity="0"/>
</linearGradient>
<linearGradient id="paint12_linear_121_39563" x1="514.415" y1="13.2803" x2="514.415" y2="156.217" gradientUnits="userSpaceOnUse">
<stop stop-color="white"/>
<stop offset="1" stop-color="white" stop-opacity="0"/>
</linearGradient>
<linearGradient id="paint13_linear_121_39563" x1="493.881" y1="13.2803" x2="493.881" y2="156.217" gradientUnits="userSpaceOnUse">
<stop stop-color="white"/>
<stop offset="1" stop-color="white" stop-opacity="0"/>
</linearGradient>
<linearGradient id="paint14_linear_121_39563" x1="472.717" y1="13.2812" x2="472.717" y2="156.218" gradientUnits="userSpaceOnUse">
<stop stop-color="white"/>
<stop offset="1" stop-color="white" stop-opacity="0"/>
</linearGradient>
<linearGradient id="paint15_linear_121_39563" x1="450.167" y1="13.2803" x2="450.167" y2="156.217" gradientUnits="userSpaceOnUse">
<stop stop-color="white"/>
<stop offset="1" stop-color="white" stop-opacity="0"/>
</linearGradient>
<linearGradient id="paint16_linear_121_39563" x1="428.657" y1="13.2803" x2="428.657" y2="156.217" gradientUnits="userSpaceOnUse">
<stop stop-color="white"/>
<stop offset="1" stop-color="white" stop-opacity="0"/>
</linearGradient>
<linearGradient id="paint17_linear_121_39563" x1="406.454" y1="13.2812" x2="406.454" y2="156.218" gradientUnits="userSpaceOnUse">
<stop stop-color="white"/>
<stop offset="1" stop-color="white" stop-opacity="0"/>
</linearGradient>
<linearGradient id="paint18_linear_121_39563" x1="754.355" y1="182.5" x2="296.031" y2="480.063" gradientUnits="userSpaceOnUse">
<stop offset="0.0483539" stop-color="#DA354B"/>
<stop offset="0.423641" stop-color="#DA354B" stop-opacity="0.643435"/>
<stop offset="1" stop-color="#DA354B" stop-opacity="0"/>
</linearGradient>
<linearGradient id="paint19_linear_121_39563" x1="703.245" y1="184.036" x2="696.281" y2="184.095" gradientUnits="userSpaceOnUse">
<stop offset="0.0483539" stop-color="#DA354B"/>
<stop offset="0.289526" stop-color="#DA354B" stop-opacity="0.643435"/>
<stop offset="1" stop-color="#DA354B" stop-opacity="0"/>
</linearGradient>
<linearGradient id="paint20_linear_121_39563" x1="628.366" y1="186.924" x2="621.401" y2="186.983" gradientUnits="userSpaceOnUse">
<stop offset="0.0483539" stop-color="#DA354B"/>
<stop offset="0.289526" stop-color="#DA354B" stop-opacity="0.643435"/>
<stop offset="1" stop-color="#DA354B" stop-opacity="0"/>
</linearGradient>
<linearGradient id="paint21_linear_121_39563" x1="729.145" y1="207.369" x2="676.482" y2="209.275" gradientUnits="userSpaceOnUse">
<stop offset="0.0483539" stop-color="#DA354B"/>
<stop offset="0.289526" stop-color="#DA354B" stop-opacity="0.643435"/>
<stop offset="1" stop-color="#DA354B" stop-opacity="0"/>
</linearGradient>
<linearGradient id="paint22_linear_121_39563" x1="595.598" y1="199.65" x2="646.96" y2="211.439" gradientUnits="userSpaceOnUse">
<stop offset="0.0483539" stop-color="#DA354B"/>
<stop offset="0.289526" stop-color="#DA354B" stop-opacity="0.643435"/>
<stop offset="1" stop-color="#DA354B" stop-opacity="0"/>
</linearGradient>
<linearGradient id="paint23_linear_121_39563" x1="740.583" y1="181.028" x2="604.909" y2="200.889" gradientUnits="userSpaceOnUse">
<stop offset="0.0483539" stop-color="#DA354B"/>
<stop offset="0.289526" stop-color="#DA354B" stop-opacity="0.643435"/>
<stop offset="1" stop-color="#DA354B" stop-opacity="0"/>
</linearGradient>
<linearGradient id="paint24_linear_121_39563" x1="648.439" y1="203.006" x2="606.363" y2="212.239" gradientUnits="userSpaceOnUse">
<stop offset="0.0483539" stop-color="#DA354B"/>
<stop offset="0.289526" stop-color="#DA354B" stop-opacity="0.643435"/>
<stop offset="1" stop-color="#DA354B" stop-opacity="0"/>
</linearGradient>
<linearGradient id="paint25_linear_121_39563" x1="690.026" y1="184.813" x2="707.825" y2="224.041" gradientUnits="userSpaceOnUse">
<stop offset="0.0483539" stop-color="#DA354B"/>
<stop offset="0.289526" stop-color="#DA354B" stop-opacity="0.643435"/>
<stop offset="1" stop-color="#DA354B" stop-opacity="0"/>
</linearGradient>
<linearGradient id="paint26_linear_121_39563" x1="706.99" y1="207.073" x2="552.762" y2="238.626" gradientUnits="userSpaceOnUse">
<stop offset="0.0483539" stop-color="#DA354B"/>
<stop offset="0.289526" stop-color="#DA354B" stop-opacity="0.643435"/>
<stop offset="1" stop-color="#DA354B" stop-opacity="0"/>
</linearGradient>
<linearGradient id="paint27_linear_121_39563" x1="20.5434" y1="14" x2="-15.1771" y2="15.132" gradientUnits="userSpaceOnUse">
<stop offset="0.0483539" stop-color="#DA354B"/>
<stop offset="0.289526" stop-color="#DA354B" stop-opacity="0.643435"/>
<stop offset="1" stop-color="#DA354B" stop-opacity="0"/>
</linearGradient>
<linearGradient id="paint28_linear_121_39563" x1="662" y1="173.457" x2="655.109" y2="187.401" gradientUnits="userSpaceOnUse">
<stop stop-color="#DA354B"/>
<stop offset="0.289526" stop-color="#DA354B" stop-opacity="0.643435"/>
<stop offset="1" stop-color="#DA354B" stop-opacity="0"/>
</linearGradient>
<clipPath id="clip0_121_39563">
<rect width="21" height="28" fill="white" transform="translate(648 194) rotate(-90)"/>
</clipPath>
</defs>
</svg>
