<svg aria-hidden="true" version="1.1" xmlns="http://www.w3.org/2000/svg" xmlns:xlink="http://www.w3.org/1999/xlink">
    <symbol id="icon-iso" viewBox="0 0 120 32">
        <path d="M11.080 0.181c-2.875 0.628-4.575 2.629-4.575 5.386 0 2.752 1.155 4.043 5.682 6.35 2.875 1.465 3.718 2.377 3.869 4.184 0.172 2.068-0.658 3.47-2.354 3.977-2.869 0.857-4.856-0.551-5.723-4.054-0.028-0.113-0.504-0.013-1.407 0.295l-1.365 0.465 0.084 0.529c0.321 2.019 2.502 4.641 4.427 5.324 5.936 2.106 11.161-3.676 8.548-9.458-0.73-1.614-2.177-2.702-5.335-4.008-1.973-0.817-3.087-1.664-3.386-2.578-0.267-0.812-0.109-1.892 0.369-2.522 1.441-1.899 3.909-1.898 5.773 0.002l0.701 0.715 1.048-0.713c1.221-0.831 1.191-0.748 0.526-1.453-2.115-2.243-4.276-3.010-6.881-2.44zM28.308 0.327c-8.501 1.917-11.020 14.68-4.020 20.367 4.885 3.968 11.779 2.64 14.417-2.779 1.581-3.248 1.835-7.866 0.618-11.242-1.66-4.602-6.467-7.372-11.015-6.346zM49.222 0.478c-4.695 0.892-7.517 4.123-7.517 8.606 0 4.365 2.534 7.064 7.108 7.569 0.877 0.097 0.915 0.117 0.654 0.346-0.152 0.133-1.674 1.489-3.381 3.012l-3.104 2.769 5.335 0.039c4.125 0.030 5.386-0.004 5.562-0.15 0.698-0.581 5.757-6.727 6.559-7.969 2.554-3.953 2.266-8.215-0.766-11.341-2.408-2.482-6.548-3.623-10.452-2.882zM72.256 0.436c-6.714 0.678-10.261 6.489-8.751 14.339 0.965 5.015 4.010 7.974 8.766 8.518 5.258 0.601 9.437-2.371 10.72-7.623 2.239-9.163-2.616-16.054-10.735-15.234zM0.142 10.127c-0.018 5.354-0.035 10.29-0.037 10.969l-0.004 1.235 1.479 0.259c0.813 0.142 1.499 0.239 1.524 0.214s0.048-5.058 0.051-11.186l0.006-11.14-2.985-0.085-0.033 9.734zM93.208 0.683c-5.055 1.113-7.67 4.856-7.643 10.946 0.029 6.666 3.016 10.805 8.431 11.68 4.237 0.685 7.899-1.002 9.932-4.575 2.095-3.683 2.343-9.643 0.554-13.357-1.768-3.673-6.661-5.71-11.274-4.694zM112.149 0.964l-3.014 0.044v3.352c0 1.844 0.041 3.459 0.090 3.589 0.074 0.194 0.357 0.237 1.551 0.237 0.833 0 1.482 0.064 1.51 0.148 0.027 0.082-0.030 3.399-0.126 7.372s-0.13 7.27-0.074 7.328c0.056 0.058 1.849 0.152 3.985 0.21l3.884 0.105 0.097-0.487c0.054-0.268 0.142-5.33 0.197-11.248l0.099-10.761-2.592 0.034c-1.426 0.019-3.949 0.054-5.607 0.078zM33.254 3.437c4.833 2.402 5.864 10.776 1.83 14.864-2.95 2.989-6.977 2.823-10.064-0.414-3.597-3.772-2.736-11.199 1.623-14.003 2.026-1.303 4.546-1.474 6.612-0.447zM53.241 7.033c1.553 0.795 1.667 3.839 0.179 4.752-1.638 1.005-3.528-0.312-3.528-2.457 0.001-1.934 1.734-3.122 3.349-2.295zM74.393 7.514c2.543 1.499 2.072 8.483-0.607 8.989-3.311 0.625-4.576-7.123-1.471-9.013 0.737-0.449 1.285-0.442 2.077 0.025zM97.133 7.934c2.292 2.305 1.266 8.675-1.398 8.675-1.838 0-3.151-2.655-2.813-5.686 0.353-3.164 2.511-4.697 4.21-2.989zM2.286 24.777c-3.061 1.099-3.044 5.742 0.025 6.753 0.798 0.263 2.295 0.227 3.042-0.074 0.603-0.243 0.627-0.277 0.627-0.909 0-0.732-0.037-0.752-0.796-0.433-1.787 0.751-3.221-0.115-3.222-1.946-0.001-1.954 1.562-2.865 3.331-1.942 0.625 0.326 0.686 0.285 0.686-0.461 0-0.645-0.029-0.694-0.558-0.917-0.88-0.372-2.215-0.403-3.136-0.072zM15.095 28.131l0.040 3.48 2.301 0.041c2.761 0.050 2.63 0.089 2.561-0.772l-0.055-0.692h-2.947v-1.485l2.754-0.086 0.046-0.636 0.046-0.636h-1.412c-1.54 0-1.586-0.030-1.458-0.936l0.058-0.412h2.943v-1.347h-4.918l0.040 3.48zM29.797 28.168v3.517h1.775l0.043-1.31c0.041-1.239 0.061-1.312 0.387-1.359 0.571-0.081 1.031 0.364 1.596 1.545l0.537 1.123h0.957c0.526 0 0.957-0.040 0.957-0.088 0-0.222-1.381-2.747-1.623-2.967-0.261-0.238-0.252-0.267 0.229-0.751 0.984-0.99 0.534-2.697-0.811-3.073-0.302-0.084-1.336-0.154-2.298-0.154l-1.749-0.001v3.517zM44.384 25.549v0.748h2.226l0.041 2.732 0.041 2.732 1.861 0.089v-5.552h2.233v-1.497h-6.401v0.748zM59.716 28.243v3.443h1.786v-6.885h-1.786v3.443zM86.658 28.311v3.525h0.893c0.609 0 0.897-0.060 0.905-0.187 0.006-0.103 0.006-1.669 0-3.48l-0.012-3.293-1.786-0.089v3.524zM99.229 24.991c-0.040 0.105-0.055 1.671-0.033 3.48l0.040 3.289 5.003 0.082-0.045-0.715-0.046-0.715-1.34-0.024c-0.737-0.013-1.423-0.030-1.526-0.037-0.122-0.009-0.186-0.27-0.186-0.762v-0.748h2.828v-1.347h-2.828v-1.197h2.977v-1.497h-2.386c-1.795 0-2.404 0.047-2.459 0.191zM71.922 28.475v3.525l1.711-0.090 0.042-1.459 0.043-1.459h2.833l-0.090-1.402-2.68-0.020-0.045-0.636-0.046-0.636h2.994v-1.347h-4.763v3.525zM113.601 28.528v3.457h1.759c3.558 0 4.944-1.104 4.753-3.787-0.159-2.237-1.246-2.999-4.39-3.075l-2.121-0.051v3.457zM33.097 26.246c0.664 0.604 0.223 1.399-0.775 1.399h-0.739v-1.646h0.621c0.369 0 0.731 0.101 0.893 0.248zM117.078 26.653c0.802 0.337 1.137 0.895 1.137 1.898 0 1.333-0.816 2.083-2.27 2.086l-0.41 0.001v-4.191h0.526c0.289 0 0.747 0.093 1.017 0.206z"></path>
    </symbol>
    
    <symbol id="icon-od" viewBox="0 0 32 32">
        <path d="M21.222 0c3.175 0 4.702 0.295 6.289 1.143 1.439 0.769 2.576 1.907 3.346 3.346 0.848 1.586 1.143 3.113 1.143 6.289v10.444c0 3.175-0.295 4.702-1.143 6.289-0.77 1.439-1.907 2.576-3.346 3.346-1.587 0.848-3.113 1.143-6.289 1.143h-10.444c-3.175 0-4.702-0.295-6.289-1.143-1.439-0.77-2.576-1.907-3.346-3.346-0.848-1.587-1.143-3.113-1.143-6.289v-10.444c0-3.175 0.295-4.702 1.143-6.289 0.769-1.439 1.907-2.576 3.346-3.346 1.586-0.848 3.113-1.143 6.289-1.143h10.444zM21.222 2.909h-10.444c-2.736 0-3.809 0.207-4.917 0.799-0.932 0.498-1.654 1.221-2.152 2.152-0.592 1.107-0.799 2.181-0.799 4.917v10.444c0 2.736 0.207 3.809 0.799 4.917 0.498 0.932 1.221 1.654 2.152 2.153 1.107 0.592 2.181 0.799 4.917 0.799h10.444c2.736 0 3.809-0.207 4.917-0.799 0.932-0.498 1.654-1.221 2.153-2.153 0.592-1.107 0.799-2.181 0.799-4.917v-10.444c0-2.736-0.207-3.809-0.799-4.917-0.498-0.932-1.221-1.654-2.153-2.152-1.107-0.592-2.181-0.799-4.917-0.799z"></path>
        <path d="M20.923 19.437c-1.172 0.767-2.785 1.072-3.851 1.186l0.894 0.909 3.264 3.365c1.194 1.261-0.749 3.233-1.955 2.016-0.817-0.856-2.015-2.091-3.264-3.378l-3.264 3.374c-1.207 1.213-3.149-0.776-1.942-2.016 0.83-0.856 2.015-2.091 3.264-3.365l0.881-0.909c-1.053-0.115-2.691-0.401-3.876-1.186-1.395-0.926-2.007-1.469-1.468-2.602 0.317-0.644 1.185-1.186 2.336-0.251 0 0 1.553 1.275 4.060 1.275s4.060-1.275 4.060-1.275c1.151-0.931 2.015-0.392 2.336 0.251 0.531 1.133-0.081 1.676-1.476 2.607zM10.449 10.426c0-3.162 2.494-5.72 5.549-5.72s5.549 2.558 5.549 5.72c0 3.149-2.494 5.707-5.549 5.707s-5.549-2.558-5.549-5.707zM13.273 10.426c0 1.548 1.224 2.809 2.725 2.809s2.725-1.261 2.725-2.809c0-1.561-1.224-2.823-2.725-2.823s-2.725 1.261-2.725 2.823z"></path>
    </symbol>
    
    <symbol id="icon-vk" viewBox="0 0 32 32">
        <path d="M21.222 0c3.175 0 4.702 0.295 6.289 1.143 1.439 0.769 2.576 1.907 3.346 3.346 0.848 1.586 1.143 3.113 1.143 6.289v10.444c0 3.175-0.295 4.702-1.143 6.289-0.77 1.439-1.907 2.576-3.346 3.346-1.587 0.848-3.113 1.143-6.289 1.143h-10.444c-3.175 0-4.702-0.295-6.289-1.143-1.439-0.77-2.576-1.907-3.346-3.346-0.848-1.587-1.143-3.113-1.143-6.289v-10.444c0-3.175 0.295-4.702 1.143-6.289 0.769-1.439 1.907-2.576 3.346-3.346 1.586-0.848 3.113-1.143 6.289-1.143h10.444zM21.222 2.909h-10.444c-2.736 0-3.809 0.207-4.917 0.799-0.932 0.498-1.654 1.221-2.152 2.152-0.592 1.107-0.799 2.181-0.799 4.917v10.444c0 2.736 0.207 3.809 0.799 4.917 0.498 0.932 1.221 1.654 2.152 2.153 1.107 0.592 2.181 0.799 4.917 0.799h10.444c2.736 0 3.809-0.207 4.917-0.799 0.932-0.498 1.654-1.221 2.153-2.153 0.592-1.107 0.799-2.181 0.799-4.917v-10.444c0-2.736-0.207-3.809-0.799-4.917-0.498-0.932-1.221-1.654-2.153-2.152-1.107-0.592-2.181-0.799-4.917-0.799z"></path>
        <path d="M17.104 22.298c-6.564 0-10.546-4.549-10.702-12.116h3.324c0.104 5.559 2.633 7.908 4.571 8.393v-8.393h3.186v4.8c1.87-0.207 3.827-2.392 4.485-4.8h3.136c-0.502 2.961-2.633 5.136-4.138 6.036 1.507 0.728 3.931 2.635 4.866 6.080h-3.447c-0.728-2.303-2.51-4.078-4.901-4.32v4.32h-0.381z"></path>
    </symbol>
    
    <symbol id="icon-fb" viewBox="0 0 32 32">
        <path d="M21.222 0c3.175 0 4.702 0.295 6.289 1.143 1.439 0.769 2.576 1.907 3.346 3.346 0.848 1.586 1.143 3.113 1.143 6.289v10.444c0 3.175-0.295 4.702-1.143 6.289-0.77 1.439-1.907 2.576-3.346 3.346-1.587 0.848-3.113 1.143-6.289 1.143h-10.444c-3.175 0-4.702-0.295-6.289-1.143-1.439-0.77-2.576-1.907-3.346-3.346-0.848-1.587-1.143-3.113-1.143-6.289v-10.444c0-3.175 0.295-4.702 1.143-6.289 0.769-1.439 1.907-2.576 3.346-3.346 1.586-0.848 3.113-1.143 6.289-1.143h10.444zM21.222 2.909h-10.444c-2.736 0-3.809 0.207-4.917 0.799-0.932 0.498-1.654 1.221-2.152 2.152-0.592 1.107-0.799 2.181-0.799 4.917v10.444c0 2.736 0.207 3.809 0.799 4.917 0.498 0.932 1.221 1.654 2.152 2.153 1.107 0.592 2.181 0.799 4.917 0.799h10.444c2.736 0 3.809-0.207 4.917-0.799 0.932-0.498 1.654-1.221 2.153-2.153 0.592-1.107 0.799-2.181 0.799-4.917v-10.444c0-2.736-0.207-3.809-0.799-4.917-0.498-0.932-1.221-1.654-2.153-2.152-1.107-0.592-2.181-0.799-4.917-0.799z"></path>
        <path d="M16.564 29.271v-10.918h-3.639v-3.639h3.639v-1.954c0-3.7 1.802-5.324 4.877-5.324 1.473 0 2.252 0.109 2.62 0.159v3.48h-2.097c-1.305 0-1.761 0.689-1.761 2.084v1.555h3.826l-0.52 3.639h-3.306v10.918h-3.639z"></path>
    </symbol>
    
    <symbol id="icon-pdf" viewBox="0 0 30 32">
        <path d="M8.844 0.025c-0.845 0.177-1.491 0.664-1.831 1.383-0.239 0.505-0.24 0.513-0.24 5.245l-0 4.405h-2.471c-2.166 0-2.514 0.009-2.818 0.076-0.699 0.154-1.129 0.53-1.39 1.217-0.092 0.243-0.093 0.282-0.093 5.199l-0 4.954 0.11 0.281c0.212 0.543 0.596 0.926 1.137 1.138 0.066 0.026 1.219 0.053 2.807 0.067l2.695 0.024 0.022 3.055c0.022 2.998 0.024 3.060 0.118 3.279 0.283 0.662 0.709 1.149 1.219 1.393 0.586 0.28-0.353 0.257 10.336 0.257 10.745 0 9.736 0.027 10.376-0.275 0.261-0.123 0.828-0.658 0.938-0.885 0.036-0.074 0.088-0.164 0.117-0.201s0.094-0.206 0.147-0.375l0.095-0.309v-21.066l-0.1-0.134c-0.115-0.154-0.303-0.356-0.966-1.038-0.259-0.266-0.892-0.923-1.407-1.459-1.563-1.629-1.724-1.795-2.116-2.202-0.208-0.216-0.79-0.821-1.292-1.345-0.991-1.033-1.933-2.008-2.309-2.39-0.13-0.133-0.287-0.26-0.348-0.283-0.107-0.041-12.542-0.054-12.736-0.013zM20.316 5.329c0 4.315-0.007 4.177 0.21 4.379 0.059 0.055 0.111 0.105 0.116 0.11s1.863 0.020 4.13 0.033l4.121 0.024v19.983l-0.118 0.223c-0.154 0.292-0.322 0.457-0.595 0.585l-0.223 0.105-19.049 0.001-0.216-0.109c-0.267-0.135-0.565-0.467-0.639-0.711-0.042-0.139-0.056-0.885-0.056-3.060v-2.877l5.458-0.023c3.092-0.013 5.506-0.041 5.569-0.064 0.558-0.203 1.048-0.731 1.197-1.288 0.118-0.442 0.111-9.777-0.007-10.194-0.127-0.448-0.38-0.795-0.765-1.051-0.494-0.328-0.105-0.308-6.094-0.324l-5.381-0.015 0.013-4.426c0.010-3.388 0.026-4.464 0.068-4.587 0.077-0.224 0.382-0.558 0.628-0.686l0.206-0.107 11.428-0.004v4.084zM23.537 3.762c0.446 0.465 1.101 1.145 1.457 1.512s0.716 0.742 0.802 0.832c0.086 0.091 0.567 0.592 1.069 1.114 1.064 1.105 1.16 1.207 1.242 1.308 0.057 0.071-0.14 0.076-3.263 0.076h-3.325l0.002-6.936 0.603 0.624c0.331 0.343 0.967 1.005 1.413 1.47zM18.717 12.398c0.373 0.191 0.349-0.159 0.35 5.151l0.001 4.685-0.1 0.199c-0.183 0.363 0.626 0.331-8.766 0.345-9.284 0.013-8.643 0.033-8.869-0.269l-0.108-0.144v-9.637l0.103-0.133c0.244-0.315-0.554-0.289 8.798-0.289 8.404 0 8.412 0 8.592 0.092zM3.609 17.683v2.655l1.047-0.025 0.024-1.974 0.812-0.023c1.124-0.032 1.436-0.138 1.81-0.611 0.263-0.334 0.33-0.583 0.308-1.153-0.021-0.555-0.090-0.727-0.427-1.069-0.392-0.397-0.692-0.449-2.628-0.453l-0.947-0.002v2.655zM8.53 15.083c-0.012 0.031-0.016 1.22-0.010 2.643l0.012 2.587 1.089 0.012c1.268 0.014 1.725-0.042 2.175-0.264 0.63-0.312 1.051-1.041 1.117-1.934 0.137-1.857-0.549-2.944-1.931-3.059-0.735-0.061-2.427-0.051-2.452 0.015zM13.886 15.057c-0.017 0.017-0.030 1.211-0.030 2.654v2.624h1.069v-2.275h2.183v-0.892h-2.186l0.012-0.613 0.012-0.613 2.539-0.045v-0.847l-1.785-0.012c-0.982-0.006-1.799 0.002-1.816 0.019zM5.7 15.962l0.465 0.038 0.168 0.177c0.297 0.313 0.27 0.783-0.060 1.049-0.18 0.145-0.516 0.201-1.249 0.207l-0.345 0.003v-1.517l0.278 0.002c0.153 0.001 0.488 0.019 0.743 0.040zM11.049 16.008c0.595 0.167 0.867 0.923 0.762 2.12-0.092 1.048-0.377 1.286-1.539 1.291l-0.67 0.003-0.012-1.695c-0.006-0.932-0.001-1.723 0.012-1.758 0.028-0.072 1.16-0.041 1.447 0.039z"></path>
    </symbol>
    
    <symbol id="icon-avia" viewBox="0 0 32 32">
        <path d="M31.62 5.192c0.001-0.952-0.28-1.884-0.809-2.676s-1.28-1.41-2.16-1.775c-0.88-0.365-1.848-0.46-2.782-0.274s-1.792 0.645-2.465 1.32l-4.389 4.389-10.137-3.374c-0.27-0.085-0.558-0.095-0.833-0.029s-0.527 0.205-0.729 0.404l-3.717 3.686c-0.176 0.178-0.307 0.396-0.381 0.635s-0.090 0.493-0.045 0.74c0.044 0.247 0.147 0.479 0.301 0.677s0.352 0.357 0.579 0.463l8.091 3.671-4.061 4.061-2.671-1.343c-0.288-0.156-0.619-0.217-0.944-0.175s-0.629 0.185-0.868 0.41l-2.765 2.827c-0.291 0.293-0.454 0.689-0.454 1.101s0.163 0.808 0.454 1.101l10.137 10.137c0.293 0.291 0.688 0.454 1.101 0.454s0.809-0.163 1.101-0.454l2.827-2.765c0.234-0.232 0.389-0.532 0.443-0.858s0.002-0.659-0.146-0.954l-1.343-2.671 4.061-4.061 3.671 8.091c0.105 0.227 0.264 0.426 0.463 0.579s0.431 0.256 0.677 0.301c0.247 0.044 0.5 0.029 0.739-0.045s0.457-0.205 0.635-0.381l3.686-3.686c0.198-0.202 0.338-0.454 0.404-0.729s0.056-0.563-0.029-0.833l-3.374-10.137 4.326-4.42c0.449-0.446 0.804-0.976 1.045-1.561s0.364-1.211 0.36-1.844v0zM27.996 6.395l-5.061 5.061c-0.198 0.202-0.338 0.454-0.404 0.729s-0.056 0.563 0.029 0.833l3.374 10.121-1.406 1.406-3.671-8.075c-0.104-0.229-0.262-0.43-0.461-0.585s-0.432-0.26-0.679-0.305c-0.25-0.046-0.507-0.030-0.749 0.047s-0.462 0.21-0.641 0.391l-6.435 6.498c-0.231 0.231-0.384 0.528-0.437 0.85s-0.004 0.653 0.14 0.946l1.281 2.624-0.875 0.875-7.856-7.872 0.922-0.812 2.671 1.343c0.293 0.145 0.624 0.194 0.946 0.14s0.62-0.206 0.85-0.437l6.466-6.498c0.179-0.178 0.313-0.397 0.389-0.638s0.093-0.497 0.048-0.746c-0.045-0.249-0.149-0.483-0.304-0.683s-0.356-0.359-0.586-0.463l-8.138-3.67 1.406-1.406 10.121 3.374c0.27 0.085 0.558 0.095 0.833 0.029s0.527-0.205 0.729-0.404l5.061-5.061c0.156-0.159 0.341-0.286 0.547-0.372s0.425-0.131 0.648-0.131 0.443 0.044 0.648 0.131c0.205 0.086 0.391 0.213 0.547 0.372 0.163 0.151 0.292 0.335 0.378 0.54s0.128 0.425 0.122 0.647c0.009 0.221-0.027 0.441-0.105 0.647s-0.196 0.395-0.348 0.556v0z"></path>
    </symbol>
    
    <symbol id="icon-way-avia" viewBox="0 0 48 32">
        <path d="M44.559 18.503h-0.007c-1.538-0.002-3.076-0.002-4.613-0.002-2.382 0-4.846 0-7.267-0.012-0.299 0-0.584-0.090-0.858-0.178-0.118-0.037-0.233-0.073-0.351-0.103-0.132-0.032-0.211-0.166-0.179-0.296 0.032-0.132 0.167-0.21 0.297-0.179 0.128 0.032 0.253 0.071 0.38 0.113 0.25 0.078 0.488 0.154 0.711 0.157 2.421 0.012 4.886 0.012 7.265 0.012 1.538 0 3.078 0 4.616 0.002h0.007c0.797 0 1.513-0.271 2.126-0.807 0.586-0.511 0.67-1.184 0.248-2-0.336-0.653-0.885-1.056-1.467-1.484-0.159-0.117-0.321-0.235-0.478-0.36-1.665-1.313-3.524-1.993-5.521-2.015-2.678-0.032-5.403-0.024-8.037-0.017-1.121 0.002-2.242 0.005-3.363 0.005h-6.612c-0.741 0-1.484 0-2.224-0.002-2.097-0.002-4.265-0.007-6.396 0.020-0.338 0.005-0.684 0.105-1.047 0.213-0.177 0.051-0.353 0.103-0.527 0.144-0.13 0.029-0.265-0.051-0.294-0.183s0.051-0.264 0.184-0.293c0.167-0.039 0.334-0.088 0.5-0.137 0.38-0.113 0.775-0.227 1.182-0.235 2.134-0.027 4.304-0.024 6.404-0.020 0.741 0 1.481 0.002 2.224 0.002h6.612c1.121 0 2.239-0.002 3.36-0.005 2.637-0.007 5.364-0.012 8.045 0.017 2.109 0.024 4.066 0.739 5.82 2.12 0.152 0.12 0.309 0.235 0.466 0.35 0.601 0.443 1.221 0.9 1.611 1.653 0.522 1.012 0.392 1.932-0.363 2.59-0.706 0.616-1.53 0.929-2.45 0.929l-0.002 0.002z"></path>
        <path d="M19.459 31.705c-0.039 0-0.078 0-0.12-0.002-0.758-0.034-1.427-0.090-2.075-0.144-0.849-0.071-1.651-0.139-2.612-0.157-0.135-0.002-0.243-0.115-0.24-0.249s0.113-0.24 0.245-0.24h0.005c0.979 0.017 1.788 0.086 2.644 0.159 0.643 0.054 1.307 0.11 2.055 0.144 0.515 0.022 0.846-0.12 1.138-0.494 0.258-0.333 0.515-0.665 0.77-0.998 0.621-0.807 1.263-1.641 1.92-2.443 1.53-1.868 3.1-3.759 4.618-5.583l1.32-1.587c0.302-0.362 0.603-0.724 0.905-1.086 0.645-0.77 1.312-1.568 1.952-2.362 0-0.012-0.015-0.122-0.024-0.186-0.010-0.078-0.017-0.154-0.017-0.225 0-0.135 0.11-0.245 0.245-0.245s0.245 0.11 0.245 0.245c0 0.051 0.007 0.108 0.015 0.166 0.022 0.183 0.047 0.391-0.081 0.55-0.643 0.797-1.312 1.597-1.96 2.37-0.302 0.362-0.603 0.721-0.905 1.083l-1.32 1.587c-1.518 1.827-3.088 3.712-4.618 5.581-0.652 0.797-1.293 1.629-1.911 2.433-0.258 0.333-0.513 0.668-0.773 1-0.363 0.467-0.819 0.685-1.427 0.685l0.005-0.003z"></path>
        <path d="M21.941 18.582h-0.005c-0.817-0.005-1.646-0.022-2.448-0.037-1.239-0.027-2.519-0.051-3.775-0.029-2.335 0.034-4.449-0.712-6.411-1.484-1.489-0.587-2.87-1.274-4.523-2.111-0.356-0.181-0.647-0.457-0.93-0.726-0.123-0.115-0.245-0.232-0.37-0.34-0.103-0.088-0.115-0.242-0.029-0.345 0.088-0.103 0.243-0.115 0.346-0.029 0.135 0.113 0.262 0.235 0.392 0.357 0.27 0.254 0.522 0.496 0.814 0.643 1.641 0.832 3.012 1.514 4.481 2.091 1.918 0.756 3.966 1.497 6.222 1.45 1.266-0.022 2.551 0.005 3.794 0.029 0.799 0.017 1.629 0.034 2.44 0.037 0.169 0 0.395-0.098 0.441-0.171 0.26-0.406 0.486-0.851 0.704-1.279 0.086-0.169 0.174-0.34 0.262-0.509 0.064-0.12 0.211-0.166 0.331-0.103s0.167 0.21 0.103 0.33c-0.088 0.166-0.174 0.335-0.26 0.501-0.223 0.44-0.456 0.893-0.726 1.321-0.159 0.249-0.559 0.399-0.856 0.399v0.005z"></path>
        <path d="M29.411 11.047c-0.088 0-0.174-0.046-0.216-0.13-0.093-0.174-0.177-0.355-0.26-0.536-0.179-0.382-0.348-0.743-0.589-1.039-0.92-1.13-1.876-2.26-2.803-3.353-0.594-0.699-1.187-1.401-1.776-2.106-0.314-0.377-0.621-0.765-0.917-1.142-0.449-0.567-0.912-1.154-1.4-1.7-0.147-0.164-0.522-0.296-0.854-0.301-0.797-0.007-1.427 0.027-2.097 0.066-0.473 0.027-0.964 0.054-1.535 0.068h-0.005c-0.132 0-0.243-0.105-0.245-0.24s0.103-0.247 0.24-0.249c0.564-0.012 1.050-0.042 1.521-0.066 0.672-0.034 1.315-0.068 2.124-0.064 0.388 0.005 0.934 0.152 1.214 0.462 0.498 0.555 0.966 1.149 1.42 1.722 0.294 0.374 0.601 0.761 0.91 1.13 0.589 0.704 1.18 1.404 1.773 2.103 0.93 1.096 1.889 2.225 2.811 3.36 0.28 0.342 0.468 0.748 0.652 1.14 0.081 0.174 0.162 0.347 0.25 0.514 0.064 0.12 0.017 0.267-0.103 0.33-0.037 0.020-0.076 0.029-0.115 0.029z"></path>
        <path d="M14.656 31.399c0 0-0.022 0-0.034 0-0.135-0.020-0.228-0.142-0.209-0.276 0.010-0.064 0.012-0.13 0.015-0.198 0.007-0.181 0.017-0.389 0.128-0.563 0.949-1.497 1.906-2.988 2.862-4.483 1.226-1.915 2.494-3.896 3.728-5.85 0.196-0.311 0.326-0.668 0.461-1.047 0.064-0.178 0.13-0.36 0.201-0.533 0.052-0.125 0.194-0.183 0.321-0.132 0.125 0.051 0.184 0.193 0.132 0.32-0.069 0.169-0.132 0.34-0.194 0.511-0.14 0.386-0.282 0.785-0.508 1.142-1.236 1.956-2.504 3.937-3.73 5.852-0.954 1.492-1.911 2.984-2.86 4.48-0.039 0.064-0.047 0.193-0.051 0.32-0.002 0.083-0.007 0.166-0.020 0.245-0.017 0.122-0.123 0.21-0.243 0.21z"></path>
        <path d="M12.26 13.246c-0.069 0-0.135-0.029-0.184-0.083-1.266-1.436-2.717-2.734-4.123-3.991-0.959-0.858-1.95-1.744-2.877-2.671-0.177-0.176-0.54-0.308-0.863-0.306-0.711 0.007-1.44 0.051-2.141 0.093-0.434 0.027-0.866 0.051-1.3 0.071-0.13 0.007-0.25-0.1-0.255-0.235s0.101-0.249 0.235-0.254c0.429-0.017 0.861-0.044 1.29-0.071 0.709-0.042 1.442-0.088 2.168-0.093 0.365 0.007 0.903 0.137 1.214 0.45 0.917 0.917 1.906 1.8 2.857 2.651 1.415 1.267 2.877 2.575 4.162 4.033 0.091 0.103 0.078 0.257-0.022 0.345-0.047 0.042-0.106 0.061-0.162 0.061z"></path>
        <path d="M8.353 24.236c-0.387 0-0.775 0-1.162 0h-1.16c-0.135 0-0.245-0.11-0.245-0.245s0.11-0.245 0.245-0.245h1.163c0.858 0 1.717 0.003 2.573 0 1.575-0.007 3.147-0.020 4.721-0.032l1.891-0.015c0.135 0 0.245 0.108 0.245 0.242s-0.108 0.245-0.243 0.247l-1.889 0.015c-1.575 0.012-3.149 0.024-4.724 0.032-0.471 0.003-0.944 0.003-1.415 0.003v-0.003z"></path>
        <path d="M22.703 11.142c-0.113 0-0.213-0.078-0.24-0.191-0.022-0.095-0.037-0.196-0.051-0.296-0.027-0.186-0.051-0.362-0.125-0.487-0.481-0.824-1.023-1.704-1.709-2.766-0.407-0.628-0.817-1.252-1.229-1.876-0.667-1.012-1.359-2.059-2.014-3.106-0.211-0.335-0.331-0.717-0.449-1.083-0.052-0.161-0.103-0.323-0.162-0.479-0.047-0.127 0.017-0.267 0.142-0.315 0.128-0.046 0.267 0.017 0.316 0.142 0.061 0.164 0.115 0.335 0.169 0.504 0.113 0.355 0.221 0.69 0.397 0.973 0.652 1.042 1.342 2.086 2.009 3.096 0.412 0.626 0.824 1.25 1.231 1.878 0.692 1.069 1.239 1.954 1.722 2.785 0.12 0.208 0.154 0.438 0.186 0.663 0.012 0.088 0.024 0.176 0.044 0.262 0.029 0.132-0.054 0.262-0.186 0.291-0.017 0.005-0.037 0.005-0.054 0.005h0.002z"></path>
        <path d="M10.055 6.317c-0.135 0-0.245-0.108-0.245-0.242s0.108-0.245 0.243-0.247l7.763-0.049c0.135 0 0.245 0.108 0.245 0.242s-0.108 0.245-0.243 0.247l-7.762 0.049z"></path>
        <path d="M3.156 13.913c-0.091 0-0.177-0.049-0.221-0.135-0.061-0.12-0.012-0.267 0.11-0.328s0.24-0.115 0.363-0.171c0.27-0.125 0.525-0.242 0.755-0.396 0.162-0.108 0.321-0.223 0.338-0.328 0.012-0.083-0.049-0.218-0.177-0.377-0.719-0.907-1.381-1.876-2.023-2.815-0.228-0.335-0.459-0.67-0.689-1.003-0.098-0.142-0.208-0.276-0.324-0.421-0.373-0.46-0.797-0.983-0.775-1.731 0.005-0.135 0.113-0.24 0.253-0.237 0.135 0.005 0.243 0.117 0.238 0.252-0.017 0.567 0.314 0.978 0.665 1.411 0.118 0.144 0.238 0.293 0.346 0.448 0.233 0.335 0.464 0.67 0.692 1.008 0.635 0.932 1.293 1.893 2.001 2.785 0.223 0.279 0.311 0.528 0.275 0.756-0.049 0.301-0.289 0.482-0.552 0.658-0.262 0.174-0.547 0.306-0.822 0.433-0.118 0.054-0.233 0.108-0.348 0.166-0.034 0.017-0.074 0.027-0.11 0.027l0.005-0.002z"></path>
        <path d="M11.78 21.798c-0.123 0-0.231-0.093-0.243-0.218-0.015-0.134 0.083-0.254 0.218-0.269 0.14-0.015 0.277-0.034 0.417-0.051 0.309-0.042 0.628-0.083 0.949-0.086 1.231-0.012 2.482-0.010 3.694-0.007h1.388c0.135 0 0.245 0.11 0.245 0.247s-0.11 0.245-0.245 0.245h-1.388c-1.209-0.002-2.46-0.005-3.689 0.007-0.292 0.002-0.581 0.042-0.89 0.083-0.142 0.020-0.284 0.037-0.429 0.054-0.010 0-0.017 0-0.027 0v-0.005z"></path>
        <path d="M19.159 8.276h-0.005l-4.503-0.095c-0.135-0.002-0.243-0.115-0.24-0.249 0.002-0.132 0.113-0.24 0.245-0.24h0.005l4.503 0.095c0.135 0.002 0.243 0.115 0.24 0.249-0.002 0.132-0.113 0.24-0.245 0.24z"></path>
        <path d="M41.198 14.965c-0.125 0-0.233-0.095-0.243-0.223-0.012-0.134 0.086-0.254 0.221-0.267 0.208-0.020 0.419-0.032 0.63-0.042 0.471-0.024 0.915-0.049 1.332-0.164 0.167-0.046 0.343-0.078 0.513-0.11 0.589-0.11 1.094-0.205 1.346-0.78 0.054-0.122 0.199-0.181 0.324-0.125 0.123 0.054 0.181 0.198 0.125 0.323-0.358 0.81-1.074 0.944-1.707 1.064-0.167 0.032-0.324 0.061-0.473 0.103-0.468 0.13-0.961 0.157-1.437 0.181-0.204 0.010-0.41 0.022-0.611 0.042-0.007 0-0.015 0-0.025 0l0.005-0.002z"></path>
    </symbol>
    
    <symbol id="icon-pack" viewBox="0 0 32 32">
        <path d="M8.076 19.123h3.124c0.414 0 0.812-0.165 1.104-0.457s0.457-0.69 0.457-1.104-0.165-0.812-0.457-1.104c-0.293-0.293-0.69-0.457-1.104-0.457h-3.124c-0.414 0-0.812 0.165-1.104 0.457s-0.457 0.69-0.457 1.104c0 0.414 0.165 0.812 0.457 1.104s0.69 0.457 1.104 0.457zM17.447 22.247h-9.371c-0.414 0-0.812 0.165-1.104 0.457s-0.457 0.69-0.457 1.104 0.165 0.812 0.457 1.104c0.293 0.293 0.69 0.457 1.104 0.457h9.371c0.414 0 0.812-0.164 1.104-0.457s0.457-0.69 0.457-1.104-0.165-0.812-0.457-1.104c-0.293-0.293-0.69-0.457-1.104-0.457zM26.818 0.38h-21.867c-1.243 0-2.435 0.494-3.313 1.372s-1.372 2.071-1.372 3.313v21.867c0 1.243 0.494 2.435 1.372 3.313s2.071 1.372 3.313 1.372h21.867c1.243 0 2.435-0.494 3.313-1.372s1.372-2.071 1.372-3.313v-21.867c0-1.243-0.494-2.435-1.372-3.313s-2.071-1.372-3.313-1.372zM19.009 3.504v5.139l-2.358-1.312c-0.237-0.137-0.507-0.209-0.781-0.209s-0.544 0.072-0.781 0.209l-2.327 1.312v-5.139h6.248zM28.38 26.933c0 0.414-0.165 0.812-0.457 1.104s-0.69 0.457-1.104 0.457h-21.867c-0.414 0-0.812-0.165-1.104-0.457s-0.457-0.69-0.457-1.104v-21.867c0-0.414 0.165-0.812 0.457-1.104s0.69-0.457 1.104-0.457h4.686v7.809c0.002 0.273 0.075 0.54 0.212 0.776s0.333 0.431 0.569 0.568c0.237 0.137 0.507 0.209 0.781 0.209s0.544-0.072 0.781-0.209l3.905-2.171 3.92 2.187c0.233 0.132 0.497 0.202 0.765 0.203 0.414 0 0.812-0.165 1.104-0.457s0.457-0.69 0.457-1.104v-7.809h4.686c0.414 0 0.812 0.165 1.104 0.457s0.457 0.69 0.457 1.104v21.867z"></path>
    </symbol>
    
    <symbol id="icon-train" viewBox="0 0 29 32">
        <path d="M9.718 19.576c-0.22-0.216-0.499-0.363-0.802-0.421s-0.616-0.026-0.901 0.093c-0.194 0.070-0.37 0.182-0.516 0.328s-0.258 0.322-0.328 0.516c-0.101 0.238-0.142 0.496-0.119 0.754s0.11 0.505 0.252 0.72c0.142 0.215 0.336 0.392 0.563 0.515s0.482 0.186 0.74 0.186c0.258 0 0.512-0.064 0.74-0.186s0.421-0.299 0.563-0.515c0.142-0.215 0.229-0.463 0.252-0.72s-0.018-0.516-0.119-0.754c-0.079-0.189-0.19-0.364-0.328-0.515zM22.213 19.576c-0.302-0.279-0.698-0.434-1.109-0.434s-0.807 0.155-1.109 0.434c-0.138 0.152-0.249 0.326-0.328 0.516-0.122 0.284-0.156 0.598-0.097 0.901s0.207 0.582 0.425 0.801c0.152 0.138 0.326 0.249 0.516 0.328 0.187 0.082 0.389 0.125 0.593 0.125s0.406-0.043 0.593-0.125c0.189-0.079 0.364-0.19 0.516-0.328 0.219-0.218 0.367-0.497 0.425-0.801s0.025-0.617-0.097-0.901c-0.079-0.189-0.19-0.364-0.328-0.516v0zM26.274 26.769c1.106-0.881 1.95-2.048 2.441-3.374s0.611-2.761 0.346-4.15l-2.343-12.495c-0.336-1.79-1.287-3.406-2.688-4.569s-3.165-1.8-4.986-1.8h-8.374c-1.821 0.001-3.585 0.637-4.986 1.801s-2.352 2.779-2.688 4.569l-2.343 12.495c-0.265 1.389-0.145 2.824 0.346 4.15s1.335 2.493 2.441 3.374l-2.183 2.183c-0.147 0.144-0.264 0.317-0.345 0.507s-0.122 0.394-0.123 0.6c-0.001 0.206 0.039 0.411 0.118 0.601s0.194 0.364 0.34 0.51c0.146 0.146 0.319 0.261 0.51 0.34s0.395 0.118 0.601 0.117c0.206-0.001 0.41-0.043 0.6-0.123s0.362-0.197 0.507-0.345l2.919-2.919c0.634 0.166 1.286 0.251 1.942 0.253h13.060c0.655-0.003 1.308-0.088 1.942-0.253l2.919 2.919c0.294 0.289 0.69 0.449 1.101 0.447s0.806-0.166 1.097-0.457c0.291-0.291 0.456-0.685 0.457-1.097s-0.159-0.808-0.447-1.101l-2.183-2.183zM6.065 7.327c0.202-1.074 0.773-2.043 1.613-2.741s1.899-1.080 2.992-1.081h8.374c1.093 0.001 2.151 0.383 2.992 1.081s1.411 1.668 1.613 2.741l0.542 2.888c-1.166 1.327-2.602 2.39-4.211 3.118s-3.356 1.105-5.122 1.105c-1.767 0-3.513-0.377-5.122-1.105s-3.045-1.791-4.211-3.118l0.542-2.888zM24.991 23.678c-0.439 0.53-0.99 0.957-1.613 1.25s-1.303 0.444-1.992 0.443h-13.060c-0.688-0-1.368-0.152-1.991-0.445s-1.174-0.719-1.614-1.249-0.757-1.15-0.93-1.816c-0.173-0.666-0.197-1.362-0.070-2.039l1.111-5.923c2.805 2.365 6.355 3.663 10.024 3.663s7.219-1.297 10.024-3.663l1.111 5.923c0.128 0.677 0.104 1.373-0.069 2.040s-0.491 1.287-0.932 1.816v0z"></path>
    </symbol>
    
    <symbol id="icon-way-train" viewBox="0 0 32 32">
        <path d="M31.467 28.268h-30.933c-0.295 0-0.533 0.239-0.533 0.533s0.238 0.533 0.533 0.533h30.933c0.295 0 0.533-0.239 0.533-0.533s-0.238-0.533-0.533-0.533z"></path>
        <path d="M29.867 22.934h-1.315l-0.356-0.533h0.070c0.912 0 1.6-1.146 1.6-2.667s-0.688-2.667-1.6-2.667h-2.667v-1.067c0-0.701-0.455-1.291-1.084-1.507 0.033-0.1 0.067-0.2 0.082-0.31 0.078-0.577-0.108-1.136-0.493-1.542 0.161-0.547 0.148-1.238-0.233-1.786-0.185-0.266-0.578-0.655-1.329-0.735 0.086-0.859-0.247-1.69-0.947-2.283-0.859-0.727-2.029-0.935-3.083-0.591-0.099-0.238-0.243-0.433-0.434-0.581-0.23-0.179-0.508-0.282-0.841-0.31 0.127-0.828-0.053-1.644-0.526-2.318-0.631-0.898-1.668-1.405-2.846-1.369-1.265 0-2.524 0.685-3.135 1.704-0.438 0.733-0.503 1.569-0.194 2.393-1.273 1.062-1.406 2.487-0.935 3.496 0.481 1.029 1.687 1.857 3.367 1.571 0.219 0.437 0.634 0.839 1.166 1.106 0.736 0.368 1.569 0.428 2.354 0.186 0.080 0.5 0.331 0.86 0.575 1.101 0.948 0.94 2.736 1.053 4.115 0.761 0.352 0.276 0.819 0.458 1.304 0.526-0.051 0.155-0.085 0.317-0.085 0.489v1.067h-2.784c-0.286-0.627-1.070-1.067-2.016-1.067s-1.73 0.439-2.016 1.067h-3.851v-1.067c0-0.294-0.238-0.533-0.533-0.533h-7.467c-0.295 0-0.533 0.239-0.533 0.533v1.6c0 0.245 0.166 0.458 0.404 0.517l1.729 0.433v4.383h-2.667c-0.295 0-0.533 0.239-0.533 0.533v2.133c0 0.294 0.238 0.533 0.533 0.533h2.667c0 1.177 0.957 2.133 2.133 2.133s2.133-0.957 2.133-2.133h1.6c0 1.177 0.957 2.133 2.133 2.133s2.133-0.957 2.133-2.133h1.6c0 1.177 0.957 2.133 2.133 2.133s2.133-0.957 2.133-2.133h1.6c0 1.177 0.957 2.133 2.133 2.133s2.133-0.957 2.133-2.133h2.667c0.295 0 0.533-0.239 0.533-0.533v-2.133c0-0.294-0.238-0.533-0.533-0.533zM21.73 14.045c-0.101-0.114-0.246-0.177-0.396-0.177-0.045 0-0.091 0.006-0.137 0.018-1.331 0.352-2.785 0.172-3.38-0.419-0.271-0.269-0.348-0.618-0.234-1.067 0.055-0.213-0.027-0.437-0.206-0.565s-0.417-0.133-0.602-0.014c-0.977 0.635-1.837 0.325-2.162 0.163-0.472-0.236-0.733-0.59-0.748-0.818-0.011-0.161-0.094-0.309-0.227-0.402s-0.3-0.119-0.455-0.075c-1.432 0.417-2.303-0.214-2.614-0.879-0.297-0.636-0.233-1.654 0.927-2.432 0.228-0.153 0.302-0.453 0.173-0.695-0.338-0.63-0.346-1.223-0.023-1.763 0.411-0.687 1.345-1.186 2.233-1.186 0.815-0.022 1.538 0.314 1.96 0.916 0.413 0.587 0.484 1.349 0.196 2.091-0.070 0.181-0.036 0.386 0.088 0.534 0.123 0.149 0.321 0.218 0.51 0.182 0.378-0.072 0.657-0.055 0.789 0.047 0.129 0.1 0.167 0.341 0.178 0.525 0.010 0.186 0.117 0.354 0.281 0.441s0.363 0.083 0.523-0.012c0.921-0.545 1.942-0.283 2.501 0.191 0.265 0.224 0.84 0.851 0.463 1.824-0.068 0.177-0.038 0.376 0.079 0.524s0.306 0.222 0.492 0.197c0.361-0.051 0.837-0.045 1.055 0.268 0.205 0.295 0.161 0.791 0.003 1.083-0.133 0.245-0.055 0.55 0.179 0.702 0.319 0.206 0.397 0.545 0.364 0.793-0.026 0.194-0.121 0.348-0.226 0.381-0.581 0.173-1.3-0.060-1.584-0.377zM11.733 18.134h4.267c0.295 0 0.533-0.239 0.533-0.533 0-0.218 0.415-0.533 1.067-0.533s1.067 0.316 1.067 0.533c0 0.294 0.238 0.533 0.533 0.533h3.733c0.295 0 0.533-0.239 0.533-0.533v-1.6c0-0.294 0.239-0.533 0.533-0.533s0.533 0.239 0.533 0.533v1.6c0 0.294 0.238 0.533 0.533 0.533h3.2c0.133 0 0.533 0.567 0.533 1.6s-0.401 1.6-0.533 1.6h-1.067c-0.197 0-0.378 0.108-0.47 0.282s-0.082 0.384 0.027 0.547l0.514 0.771h-15.537v-4.8zM7.467 27.201c-0.588 0-1.067-0.478-1.067-1.067h2.133c0 0.589-0.478 1.067-1.067 1.067zM13.333 27.201c-0.588 0-1.067-0.478-1.067-1.067h2.133c0 0.589-0.478 1.067-1.067 1.067zM19.2 27.201c-0.588 0-1.067-0.478-1.067-1.067h2.133c0 0.589-0.478 1.067-1.067 1.067zM25.067 27.201c-0.588 0-1.067-0.478-1.067-1.067h2.133c0 0.589-0.478 1.067-1.067 1.067zM29.333 25.068l-26.133-0.001v-1.067h2.667c0.295 0 0.533-0.239 0.533-0.533v-5.333c0-0.245-0.167-0.458-0.404-0.517l-1.729-0.432v-0.65h6.4v6.933c0 0.294 0.238 0.533 0.533 0.533h18.133v1.067z"></path>
    </symbol>
    
    <symbol id="icon-auto" viewBox="0 0 37 32">
        <path d="M0.203 16.829v8.283c0 0.439 0.175 0.861 0.485 1.171s0.732 0.485 1.171 0.485h1.657c0 1.318 0.524 2.582 1.456 3.514s2.196 1.456 3.514 1.456 2.582-0.524 3.514-1.456c0.932-0.932 1.456-2.196 1.456-3.514h9.939c0 1.318 0.524 2.582 1.456 3.514s2.196 1.456 3.514 1.456c1.318 0 2.582-0.524 3.514-1.456s1.456-2.196 1.456-3.514h1.657c0.439 0 0.861-0.175 1.171-0.485s0.485-0.732 0.485-1.171v-19.879c0-1.318-0.524-2.582-1.456-3.514s-2.196-1.456-3.514-1.456h-14.909c-1.318 0-2.582 0.524-3.514 1.456s-1.456 2.196-1.456 3.514v3.313h-3.313c-0.772 0-1.532 0.18-2.223 0.525s-1.29 0.846-1.753 1.463l-3.976 5.301c-0.048 0.072-0.087 0.15-0.116 0.232l-0.099 0.182c-0.073 0.185-0.112 0.381-0.116 0.58v0zM26.708 26.768c0-0.328 0.097-0.648 0.279-0.92s0.441-0.485 0.743-0.61 0.636-0.158 0.957-0.094c0.321 0.064 0.617 0.222 0.848 0.453s0.389 0.527 0.453 0.848c0.064 0.321 0.031 0.654-0.094 0.957s-0.338 0.561-0.61 0.743c-0.273 0.182-0.593 0.279-0.92 0.279-0.439 0-0.861-0.175-1.171-0.485s-0.485-0.732-0.485-1.171zM15.112 5.233c0-0.439 0.175-0.861 0.485-1.171s0.732-0.485 1.171-0.485h14.909c0.439 0 0.861 0.175 1.171 0.485s0.485 0.732 0.485 1.171v18.222h-1.292c-0.466-0.512-1.034-0.922-1.667-1.202s-1.318-0.425-2.011-0.425c-0.693 0-1.377 0.145-2.011 0.425s-1.201 0.69-1.667 1.202h-9.575v-18.222zM11.799 15.172h-6.626l1.988-2.65c0.154-0.206 0.354-0.373 0.584-0.488s0.484-0.175 0.741-0.175h3.313v3.313zM6.829 26.768c0-0.328 0.097-0.648 0.279-0.92s0.441-0.485 0.743-0.61 0.636-0.158 0.957-0.094c0.321 0.064 0.617 0.222 0.848 0.453s0.389 0.527 0.453 0.848c0.064 0.321 0.031 0.654-0.094 0.957s-0.338 0.561-0.61 0.743c-0.272 0.182-0.593 0.279-0.92 0.279-0.439 0-0.861-0.175-1.171-0.485s-0.485-0.732-0.485-1.171zM3.516 18.486h8.283v4.605c-0.978-0.874-2.261-1.326-3.57-1.257s-2.539 0.651-3.42 1.622h-1.292v-4.97z"></path>
    </symbol>
    
    <symbol id="icon-way-auto" viewBox="0 0 32 32">
        <path d="M12.691 21.343c-0.439 0-0.868 0.121-1.24 0.35-0.159 0.098-0.209 0.306-0.111 0.465s0.306 0.209 0.465 0.111c0.266-0.163 0.572-0.25 0.886-0.25 0.935 0 1.696 0.761 1.696 1.695s-0.761 1.696-1.696 1.696-1.696-0.761-1.696-1.696c0-0.187-0.151-0.338-0.338-0.338h-3.115c-0.187 0-0.338 0.151-0.338 0.338s0.152 0.338 0.338 0.338h2.804c0.165 1.148 1.152 2.034 2.345 2.034 1.308 0 2.372-1.064 2.372-2.372s-1.064-2.372-2.372-2.372z"></path>
        <path d="M20.529 9.243c-0.856 0-0.881-0.954-0.881-1.063v-0.799c0-0.809-0.659-1.468-1.468-1.468h-16.712c-0.809 0-1.468 0.659-1.468 1.468v15.204c0 0.823 0.475 1.468 1.081 1.468h0.432c0.165 1.148 1.152 2.034 2.345 2.034 1.308 0 2.372-1.064 2.372-2.372s-1.064-2.372-2.372-2.372c-0.439 0-0.868 0.121-1.24 0.35-0.159 0.098-0.209 0.306-0.111 0.465s0.306 0.209 0.465 0.111c0.266-0.163 0.572-0.25 0.886-0.25 0.935 0 1.696 0.761 1.696 1.695s-0.761 1.696-1.696 1.696c-0.935 0-1.696-0.761-1.696-1.696 0-0.187-0.151-0.338-0.338-0.338h-0.743c-0.165 0-0.405-0.308-0.405-0.792v-15.204c0-0.436 0.355-0.792 0.792-0.792h16.712c0.436 0 0.791 0.355 0.791 0.792v0.799c0 0.838 0.488 1.739 1.557 1.739 0.224 0 0.475 0.338 0.475 0.792v11.874c0 0.437-0.355 0.792-0.792 0.792h-3.74c-0.187 0-0.338 0.151-0.338 0.338s0.151 0.338 0.338 0.338h3.74c0.81 0 1.468-0.659 1.468-1.468v-11.874c-0-0.81-0.516-1.468-1.151-1.468z"></path>
        <path d="M31.411 16.548l-2.855-5.067c-0.361-0.64-1.218-1.141-1.952-1.141h-1.835c-0.8 0-1.45 0.65-1.45 1.45v4.781c0 0.8 0.651 1.45 1.45 1.45h3.892c0.187 0 0.338-0.151 0.338-0.338s-0.151-0.338-0.338-0.338h-3.892c-0.427 0-0.774-0.347-0.774-0.774v-4.781c0-0.427 0.347-0.774 0.774-0.774h1.835c0.487 0 1.124 0.372 1.363 0.797l2.856 5.067c0.272 0.483 0.502 1.36 0.502 1.915v3.78c0 0.427-0.347 0.774-0.774 0.774h-1.21c-0.187 0-0.338 0.151-0.338 0.338s0.151 0.338 0.338 0.338h1.21c0.8 0 1.45-0.651 1.45-1.45v-3.78c0-0.673-0.259-1.66-0.589-2.247z"></path>
        <path d="M25.966 21.288c-0.444 0-0.878 0.122-1.255 0.354-0.159 0.098-0.209 0.306-0.111 0.465s0.306 0.209 0.465 0.111c0.27-0.166 0.582-0.254 0.901-0.254 0.95 0 1.723 0.773 1.723 1.723s-0.773 1.723-1.723 1.723c-0.95 0-1.723-0.773-1.723-1.723 0-0.187-0.151-0.338-0.338-0.338h-1.279c-0.187 0-0.338 0.151-0.338 0.338s0.151 0.338 0.338 0.338h0.967c0.165 1.163 1.165 2.061 2.373 2.061 1.323 0 2.399-1.076 2.399-2.399s-1.076-2.399-2.399-2.399z"></path>
    </symbol>
    
    <symbol id="icon-ship" viewBox="0 0 32 32">
        <path d="M3.14 24.246c0.153 0.385 0.453 0.694 0.834 0.858s0.811 0.17 1.196 0.017c0.385-0.153 0.694-0.453 0.858-0.834s0.17-0.811 0.017-1.196l-1.749-4.405 10.371-2.296v7.419c0 0.414 0.164 0.812 0.457 1.104s0.69 0.457 1.104 0.457c0.414 0 0.812-0.164 1.104-0.457s0.457-0.69 0.457-1.104v-7.419l10.371 2.296-1.749 4.405c-0.076 0.191-0.114 0.395-0.111 0.6s0.046 0.408 0.127 0.597c0.081 0.189 0.199 0.359 0.346 0.502s0.321 0.256 0.512 0.331c0.184 0.073 0.38 0.11 0.578 0.109 0.313 0 0.619-0.093 0.877-0.269s0.459-0.425 0.575-0.715l2.421-6.107c0.083-0.211 0.119-0.438 0.106-0.665s-0.076-0.447-0.184-0.647c-0.104-0.199-0.25-0.373-0.428-0.511s-0.383-0.235-0.602-0.286l-5.029-1.109v-6.732c0-0.414-0.165-0.812-0.457-1.104s-0.69-0.457-1.104-0.457h-3.124v-4.686c0-0.414-0.165-0.812-0.457-1.104s-0.69-0.457-1.104-0.457h-6.248c-0.414 0-0.812 0.165-1.104 0.457s-0.457 0.69-0.457 1.104v4.686h-3.124c-0.414 0-0.812 0.165-1.104 0.457s-0.457 0.69-0.457 1.104v6.732l-5.029 1.078c-0.219 0.051-0.425 0.148-0.602 0.286s-0.324 0.312-0.428 0.511c-0.108 0.2-0.17 0.421-0.184 0.647s0.023 0.453 0.106 0.665l2.421 6.138zM14.667 3.504h3.124v3.124h-3.124v-3.124zM9.982 9.752h12.495v4.467l-5.904-1.343h-0.687l-5.904 1.343v-4.467zM29.833 27.37c-0.548 0.168-1.073 0.404-1.562 0.703-0.498 0.291-1.064 0.444-1.64 0.444s-1.142-0.153-1.64-0.444c-1.082-0.61-2.303-0.931-3.546-0.931s-2.464 0.321-3.546 0.931c-0.504 0.288-1.075 0.439-1.656 0.439s-1.151-0.151-1.656-0.439c-1.083-0.608-2.304-0.927-3.546-0.927s-2.463 0.319-3.546 0.927c-0.498 0.291-1.064 0.444-1.64 0.444s-1.142-0.153-1.64-0.444c-0.489-0.299-1.014-0.535-1.562-0.703-0.208-0.074-0.429-0.103-0.649-0.085s-0.433 0.082-0.627 0.188c-0.193 0.106-0.362 0.252-0.495 0.428s-0.227 0.378-0.276 0.593c-0.117 0.396-0.072 0.821 0.124 1.184s0.528 0.633 0.922 0.753c0.315 0.085 0.615 0.217 0.89 0.39 0.948 0.556 2.025 0.852 3.124 0.859 1.141 0 2.262-0.302 3.249-0.875 0.612-0.338 1.3-0.515 1.999-0.515s1.387 0.177 1.999 0.515c0.98 0.56 2.089 0.855 3.218 0.855s2.238-0.295 3.218-0.855c0.612-0.338 1.3-0.515 1.999-0.515s1.387 0.177 1.999 0.515c0.968 0.578 2.075 0.883 3.202 0.883s2.234-0.305 3.202-0.883c0.276-0.174 0.576-0.305 0.89-0.39 0.208-0.042 0.405-0.126 0.579-0.247s0.322-0.276 0.435-0.455 0.187-0.381 0.22-0.59c0.032-0.21 0.022-0.424-0.031-0.629-0.050-0.211-0.143-0.41-0.274-0.583s-0.296-0.318-0.486-0.423c-0.19-0.106-0.399-0.171-0.615-0.191s-0.434 0.005-0.64 0.073z"></path>
    </symbol>
    
    <symbol id="icon-way-ship" viewBox="0 0 32 32">
        <path d="M31.924 15.467c-0.104-0.184-0.299-0.298-0.511-0.298h-2.542v-1.19c0-0.324-0.263-0.587-0.587-0.587h-1.786v-2.343c0-0.324-0.263-0.587-0.587-0.587h-2.325v-2.37c0-0.324-0.263-0.587-0.587-0.587h-5.848c-0.324 0-0.587 0.263-0.587 0.587v2.37h-2.325c-0.324 0-0.587 0.263-0.587 0.587v2.343h-1.786c-0.324 0-0.587 0.263-0.587 0.587v2.318h-2.373v-6.423c0-0.324-0.263-0.587-0.587-0.587h-7.047c-0.324 0-0.587 0.263-0.587 0.587v6.423h-0.096c-0.211 0-0.406 0.113-0.51 0.297s-0.102 0.409 0.005 0.59l3.57 6.018c0.442 0.737 1.423 1.292 2.282 1.292h19.42c0.859 0 1.84-0.555 2.283-1.292l4.279-7.144c0.109-0.181 0.111-0.407 0.007-0.591zM27.697 15.169h-4.111v-0.603h4.111v0.603zM22.411 14.567v0.61c-0.984 0.078-1.686 0.74-2.012 1.121h-2.662v-1.731h4.674zM25.323 13.392h-4.698v-1.756h4.698v1.756zM17.738 8.68h4.674v1.782h-4.674v-1.782zM14.826 11.636h4.625v1.756h-4.625v-1.756zM12.452 14.567h4.111v1.731h-4.111v-1.731zM1.857 10.462h5.873v1.132h-1.175c-0.324 0-0.587 0.263-0.587 0.587s0.263 0.587 0.587 0.587h1.175v1.193h-1.175c-0.324 0-0.587 0.263-0.587 0.587s0.263 0.587 0.587 0.587h1.175v1.162h-5.873v-5.836zM26.63 22.598c-0.227 0.378-0.835 0.722-1.275 0.722h-19.42c-0.441 0-1.049-0.344-1.274-0.719l-3.042-5.129h19.068c0.195 0 0.38-0.1 0.489-0.262 0.006-0.009 0.592-0.866 1.428-0.866h5.583c0.032 0.005 0.065 0.009 0.098 0.009s0.066-0.003 0.098-0.009h1.995l-3.746 6.255z"></path>
        <path d="M4.794 11.594c-0.155 0-0.306 0.062-0.415 0.172s-0.172 0.261-0.172 0.415c0 0.154 0.062 0.305 0.172 0.415s0.261 0.172 0.415 0.172c0.155 0 0.306-0.063 0.415-0.172s0.172-0.261 0.172-0.415c0-0.155-0.062-0.306-0.172-0.415s-0.261-0.172-0.415-0.172z"></path>
        <path d="M3.056 11.594c-0.154 0-0.306 0.062-0.415 0.172s-0.172 0.261-0.172 0.415c0 0.154 0.063 0.305 0.172 0.415s0.261 0.172 0.415 0.172c0.155 0 0.306-0.063 0.415-0.172s0.172-0.261 0.172-0.415c0-0.155-0.062-0.306-0.172-0.415s-0.261-0.172-0.415-0.172z"></path>
        <path d="M4.794 13.961c-0.155 0-0.306 0.062-0.415 0.172s-0.172 0.261-0.172 0.415c0 0.154 0.062 0.305 0.172 0.415s0.261 0.172 0.415 0.172c0.155 0 0.306-0.063 0.415-0.172s0.172-0.261 0.172-0.415c0-0.155-0.062-0.306-0.172-0.415s-0.261-0.172-0.415-0.172z"></path>
        <path d="M3.056 13.961c-0.154 0-0.305 0.062-0.415 0.172s-0.172 0.261-0.172 0.415c0 0.154 0.063 0.305 0.172 0.415s0.261 0.172 0.415 0.172c0.155 0 0.306-0.063 0.415-0.172s0.172-0.261 0.172-0.415c0-0.155-0.062-0.306-0.172-0.415s-0.261-0.172-0.415-0.172z"></path>
        <path d="M8.918 18.665c-0.154 0-0.305 0.062-0.415 0.172s-0.172 0.261-0.172 0.415c0 0.154 0.063 0.306 0.172 0.415s0.261 0.172 0.415 0.172c0.155 0 0.306-0.062 0.415-0.172s0.172-0.261 0.172-0.415c0-0.155-0.062-0.306-0.172-0.415s-0.261-0.172-0.415-0.172z"></path>
        <path d="M11.272 18.665c-0.155 0-0.306 0.062-0.415 0.172s-0.172 0.261-0.172 0.415c0 0.155 0.062 0.306 0.172 0.415s0.261 0.172 0.415 0.172c0.155 0 0.306-0.062 0.415-0.172s0.172-0.261 0.172-0.415c0-0.155-0.062-0.306-0.172-0.415s-0.261-0.172-0.415-0.172z"></path>
        <path d="M13.626 18.665c-0.155 0-0.306 0.062-0.415 0.172s-0.172 0.261-0.172 0.415 0.062 0.306 0.172 0.415c0.109 0.109 0.261 0.172 0.415 0.172s0.305-0.062 0.415-0.172 0.172-0.261 0.172-0.415-0.063-0.306-0.172-0.415c-0.109-0.109-0.261-0.172-0.415-0.172z"></path>
        <path d="M15.979 18.665c-0.154 0-0.306 0.062-0.415 0.172s-0.172 0.261-0.172 0.415 0.063 0.306 0.172 0.415c0.109 0.109 0.261 0.172 0.415 0.172s0.306-0.062 0.415-0.172 0.172-0.261 0.172-0.415c0-0.155-0.062-0.306-0.172-0.415s-0.261-0.172-0.415-0.172z"></path>
        <path d="M18.333 18.665c-0.154 0-0.306 0.062-0.415 0.172s-0.172 0.261-0.172 0.415c0 0.155 0.062 0.306 0.172 0.415s0.261 0.172 0.415 0.172c0.155 0 0.306-0.062 0.415-0.172s0.172-0.261 0.172-0.415c0-0.155-0.062-0.306-0.172-0.415s-0.261-0.172-0.415-0.172z"></path>
        <path d="M20.688 18.665c-0.155 0-0.306 0.062-0.415 0.172s-0.172 0.261-0.172 0.415c0 0.155 0.062 0.306 0.172 0.415s0.261 0.172 0.415 0.172c0.154 0 0.305-0.062 0.415-0.172s0.172-0.261 0.172-0.415c0-0.155-0.063-0.306-0.172-0.415s-0.261-0.172-0.415-0.172z"></path>
    </symbol>
    
    <symbol id="icon-arrow" viewBox="0 0 32 32">
        <path d="M24.344 14l-10.728-10.728 2.828-2.828 15.556 15.556-15.556 15.556-2.828-2.828 10.728-10.728h-24.344v-4h24.344z"></path>
    </symbol>
    
    <symbol id="icon-wa" viewBox="0 0 32 32">
        <path d="M15.224 0.018c-8.451 0.402-15.12 7.441-15.095 15.901 0.008 2.577 0.63 5.009 1.727 7.158l-1.685 8.179c-0.091 0.442 0.308 0.83 0.747 0.726l8.014-1.899c2.059 1.026 4.372 1.618 6.819 1.655 8.638 0.132 15.84-6.727 16.11-15.361 0.289-9.256-7.35-16.802-16.639-16.36zM24.787 24.658c-2.347 2.347-5.468 3.64-8.787 3.64-1.944 0-3.804-0.436-5.531-1.296l-1.116-0.556-4.914 1.164 1.034-5.021-0.55-1.077c-0.896-1.755-1.351-3.653-1.351-5.641 0-3.319 1.293-6.44 3.64-8.787 2.326-2.326 5.498-3.64 8.787-3.64 3.319 0 6.44 1.293 8.787 3.64s3.64 5.468 3.64 8.787c-0 3.29-1.314 6.461-3.64 8.787z"></path>
        <path d="M23.702 19.313l-3.074-0.883c-0.404-0.116-0.839-0.001-1.134 0.299l-0.752 0.766c-0.317 0.323-0.798 0.427-1.218 0.257-1.454-0.588-4.513-3.308-5.294-4.669-0.225-0.392-0.188-0.883 0.089-1.241l0.656-0.849c0.257-0.333 0.311-0.78 0.141-1.164l-1.293-2.925c-0.31-0.701-1.205-0.905-1.79-0.41-0.858 0.726-1.876 1.828-2 3.050-0.218 2.154 0.706 4.869 4.199 8.129 4.035 3.766 7.267 4.264 9.371 3.754 1.193-0.289 2.147-1.448 2.749-2.397 0.41-0.647 0.086-1.506-0.65-1.718z"></path>
    </symbol>
    
    <symbol id="icon-truck" viewBox="0 0 97 32">
    <path fill="#fff"></path>
    <path fill="#C62828" style="fill: var(--color2, #C62828)" d="M3.691 22.101c-0.066 0-0.113-0.022-0.145-0.037l-0.014-0.006c-0.109-0.048-0.238-0.047-0.375-0.048h-0.031c-0.358 0-0.716 0-1.075 0-0.447 0-0.895 0-1.342 0-0.602 0.003-0.655-0.163-0.656-0.639v-0.016c0-0.221 0-0.441 0.003-0.662 0.003-0.398 0.006-0.808-0.008-1.209-0.014-0.384-0.005-0.771 0.005-1.146 0.006-0.252 0.012-0.511 0.012-0.766-0.016-4.354-0.014-8.779-0.012-13.059v-3.897c0-0.059-0.002-0.118 0.003-0.176 0.019-0.258 0.178-0.417 0.438-0.435 0.059-0.005 0.117-0.003 0.177-0.002h75.775c0.034 0.003 0.067 0.005 0.101 0 0.256-0.026 0.434 0.117 0.491 0.389 0.015 0.078 0.012 0.152 0.009 0.219 0 0.025-0.003 0.050-0.003 0.075v2.367c0 4.733 0 9.466 0 14.199 0 0.048 0 0.095 0.003 0.143 0.006 0.214 0.014 0.457-0.111 0.682 0.113 0.191 0.111 0.387 0.108 0.56v2.718c0 0.249-0.024 0.424-0.136 0.536-0.12 0.12-0.289 0.118-0.522 0.12-2.627-0.003-5.254-0.003-7.882-0.002h-2.317c-0.086 0-0.156-0.070-0.156-0.155s0.070-0.155 0.156-0.155h2.317c2.627 0 5.255 0 7.882 0.002 0.134 0 0.272 0 0.302-0.028 0.015-0.017 0.044-0.079 0.044-0.317v-2.723c0.003-0.151 0.005-0.281-0.064-0.395-0.025-0.044-0.094-0.157-0.009-0.305 0.088-0.152 0.081-0.336 0.076-0.53-0.002-0.051-0.003-0.103-0.003-0.154 0-4.733 0-9.466 0-14.199v-2.366c0-0.030 0-0.061 0.003-0.090 0.003-0.053 0.005-0.103-0.003-0.141-0.030-0.143-0.081-0.148-0.153-0.141-0.047 0.005-0.094 0.003-0.141 0.003h-75.776c-0.048-0.003-0.098-0.005-0.147 0-0.103 0.008-0.142 0.047-0.15 0.149-0.003 0.050-0.003 0.098 0 0.148v3.903c0 4.281-0.003 8.706 0.013 13.058 0 0.26-0.006 0.522-0.013 0.776-0.009 0.37-0.019 0.752-0.005 1.125 0.016 0.409 0.013 0.822 0.008 1.223-0.002 0.219-0.003 0.438-0.003 0.657v0.016c0 0.124 0 0.264 0.025 0.291 0.009 0.011 0.056 0.039 0.319 0.037 0.447 0 0.895 0 1.344 0 0.358 0 0.716 0 1.074 0h0.031c0.156 0 0.333 0 0.505 0.075l0.019 0.008c0 0 0.014 0.008 0.022 0.009 0.775-0.127 1.569-0.11 2.336-0.093 0.445 0.009 0.906 0.020 1.357 0.002 0.238-0.009 32.031 0.020 32.092 0.030 0.084 0.014 0.142 0.095 0.128 0.179-0.013 0.079-0.086 0.137-0.163 0.129-0.306-0.005-31.625-0.033-32.048-0.028-0.456 0.019-0.922 0.008-1.372-0.002-0.753-0.017-1.533-0.034-2.29 0.089-0.017 0.003-0.033 0.005-0.048 0.005l-0.002 0.003z"></path>
    <path fill="#C62828" style="fill: var(--color2, #C62828)" d="M76.734 18.226h-76.411c-0.086 0-0.156-0.070-0.156-0.155s0.070-0.155 0.156-0.155h76.411c0.086 0 0.156 0.070 0.156 0.155s-0.070 0.155-0.156 0.155z"></path>
    <path fill="#C62828" style="fill: var(--color2, #C62828)" d="M34.182 31.724c-0.097 0-0.195-0.003-0.292-0.009-1.919-0.117-3.53-1.326-4.204-3.154-0.163-0.44-0.211-0.9-0.258-1.343l-0.017-0.159c0-0.011 0-0.022 0-0.031 0-0.011 0-0.022 0-0.034 0.006-0.050 0.012-0.101 0.020-0.151 0.014-0.104 0.028-0.207 0.037-0.312 0.2-2.473 2.432-4.368 4.971-4.22 1.263 0.073 2.422 0.636 3.268 1.584 0.844 0.947 1.266 2.162 1.186 3.421-0.156 2.487-2.241 4.408-4.712 4.408zM29.722 27.028l0.017 0.157c0.047 0.445 0.092 0.866 0.241 1.268 0.631 1.71 2.136 2.841 3.93 2.95 2.422 0.149 4.523-1.694 4.673-4.108 0.074-1.175-0.32-2.31-1.108-3.194-0.791-0.886-1.874-1.411-3.052-1.48-2.375-0.137-4.454 1.627-4.642 3.934-0.009 0.11-0.023 0.219-0.039 0.33-0.006 0.048-0.012 0.095-0.019 0.143h-0.002z"></path>
    <path fill="#C62828" style="fill: var(--color2, #C62828)" d="M84.385 31.724c-0.106 0-0.213-0.003-0.32-0.011-1.894-0.123-3.521-1.351-4.145-3.124-0.51-1.45-0.354-2.824 0.462-4.088 0.902-1.394 2.201-2.131 3.862-2.187 0.006 0 0.012 0 0.020 0 0.003 0 0.007 0 0.010 0 1.242-0.044 2.328 0.351 3.229 1.161 1.389 1.253 1.894 2.874 1.461 4.686-0.503 2.106-2.4 3.563-4.581 3.563h0.002zM84.266 22.623c0 0-0.006 0-0.009 0-1.553 0.053-2.768 0.741-3.61 2.044-0.761 1.178-0.906 2.462-0.431 3.817 0.581 1.657 2.1 2.802 3.869 2.917 2.16 0.141 4.084-1.253 4.578-3.314 0.411-1.721-0.050-3.196-1.368-4.385-0.836-0.755-1.847-1.118-3.008-1.082-0.006 0-0.012 0-0.020 0v0.002z"></path>
    <path fill="#C62828" style="fill: var(--color2, #C62828)" d="M69.917 30.078c-0.361 0-0.706-0.148-0.97-0.415-0.259-0.263-0.403-0.611-0.396-0.953 0.031-1.22 0.031-2.321 0-3.362-0.011-0.354 0.133-0.71 0.396-0.978 0.269-0.272 0.622-0.421 0.995-0.421h0.014c1.58 0.016 3.188 0.012 4.743 0.009 0.61 0 1.221-0.002 1.83-0.002 0.005 0 0.009 0 0.014 0 0.006 0 0.014 0 0.020 0 0.861 0.031 1.327 0.707 1.328 1.327 0.003 1.153 0.003 2.307 0 3.46 0 0.344-0.147 0.682-0.4 0.934-0.261 0.258-0.602 0.398-0.964 0.398-2.077-0.008-4.315-0.014-6.602 0.003h-0.009v-0.002zM69.943 24.258c-0.291 0-0.564 0.117-0.774 0.328-0.203 0.207-0.315 0.48-0.306 0.751 0.033 1.048 0.033 2.154 0 3.381-0.006 0.26 0.105 0.524 0.305 0.727 0.205 0.207 0.471 0.322 0.747 0.322h0.006c2.294-0.016 4.626-0.011 6.604-0.003 0.272 0.003 0.541-0.107 0.743-0.306 0.195-0.193 0.308-0.454 0.308-0.713 0.003-1.153 0.003-2.307 0-3.458 0-0.476-0.361-0.993-1.028-1.018-0.003 0-0.006 0-0.009 0-0.005 0-0.009 0-0.014 0-0.609 0-1.219 0-1.83 0.002-1.555 0.003-3.163 0.006-4.746-0.009h-0.011l0.006-0.002z"></path>
    <path fill="#C62828" style="fill: var(--color2, #C62828)" d="M93.545 17.23c-1.005 0-2.010 0-3.015-0.005-0.135 0-0.269-0.005-0.403-0.011-0.194-0.006-0.396-0.014-0.594-0.006-0.584 0.020-1.134-0.19-1.553-0.595-0.433-0.42-0.686-1.017-0.677-1.593 0.014-0.948 0.011-1.913 0.008-2.846 0-0.409-0.003-0.818-0.003-1.226v-0.070c-0.002-0.059-0.003-0.118 0-0.176 0.019-0.258 0.178-0.417 0.438-0.435 0.059-0.005 0.117-0.003 0.177-0.002h8.575c0.086 0 0.156 0.070 0.156 0.157s-0.070 0.155-0.156 0.155h-8.581c-0.049-0.002-0.098-0.003-0.147 0-0.103 0.008-0.142 0.047-0.15 0.149-0.003 0.050-0.003 0.098 0 0.148v0.076c0 0.409 0.002 0.818 0.003 1.226 0.003 0.934 0.006 1.901-0.008 2.852-0.008 0.494 0.211 1.006 0.583 1.366 0.356 0.347 0.825 0.525 1.322 0.508 0.209-0.008 0.417 0 0.616 0.006 0.131 0.005 0.261 0.009 0.394 0.009 1.494 0.005 2.99 0.005 4.483 0.003h1.471c0.086 0 0.156 0.070 0.156 0.155s-0.070 0.155-0.156 0.155h-1.471c-0.489 0-0.98 0-1.47 0l0.003-0.003z"></path>
    <path fill="#C62828" style="fill: var(--color2, #C62828)" d="M80.684 23.871c-0.086 0-0.156-0.070-0.156-0.155v-2.994c0-4.007 0-8.993-0.005-12.531 0-0.479 0.252-0.864 0.711-1.083 0.241-0.115 0.477-0.096 0.684-0.081 0.071 0.006 0.141 0.011 0.211 0.011 2.535 0.002 5.071 0 7.606 0.005h0.003c0.228 0 0.409-0.042 0.569-0.131 0.075-0.042 0.17-0.016 0.212 0.061 0.042 0.075 0.015 0.169-0.061 0.211-0.208 0.115-0.438 0.169-0.721 0.169h-0.005c-2.535-0.005-5.070-0.002-7.606-0.005-0.078 0-0.156-0.006-0.234-0.012-0.192-0.014-0.359-0.028-0.525 0.051-0.35 0.168-0.534 0.445-0.533 0.804 0.006 3.538 0.006 8.524 0.006 12.531v2.994c0 0.085-0.070 0.155-0.156 0.155h-0.002z"></path>
    <path fill="#C62828" style="fill: var(--color2, #C62828)" d="M95.64 29.080h-0.011c-1.243-0.011-3.424-0.008-5.176-0.006-0.578 0-1.103 0-1.521 0-0.086 0-0.157-0.070-0.157-0.155s0.071-0.155 0.157-0.155c0.417 0 0.941 0 1.521 0 1.753-0.002 3.935-0.005 5.179 0.006 0.241 0 0.455-0.084 0.608-0.241 0.147-0.151 0.22-0.348 0.214-0.572-0.012-0.357-0.008-0.72-0.003-1.069 0.005-0.399 0.009-0.813-0.011-1.215-0.025-0.5-0.011-1.004 0-1.492 0.011-0.396 0.022-0.808 0.011-1.209-0.015-0.628-0.012-1.265-0.008-1.882 0.002-0.274 0.003-0.546 0.003-0.819s0.003-0.544 0.006-0.816c0.006-0.616 0.013-1.251-0.015-1.873-0.017-0.393-0.007-0.788 0.005-1.17 0.009-0.339 0.020-0.689 0.009-1.031-0.015-0.513-0.012-1.032-0.008-1.536 0-0.222 0.003-0.446 0.003-0.668v-0.55c0-0.55 0-1.1 0-1.649 0-0.154 0-0.291-0.049-0.41-0.024-0.048-0.055-0.113-0.033-0.19 0.167-0.57-0.072-1.044-0.405-1.606-0.273-0.462-0.686-0.827-1.225-1.086-0.438-0.211-0.877-0.306-1.346-0.308-0.864 0.006-1.716 0.003-2.36 0-0.253 0-0.725-0.003-0.867-0.553-0.027-0.101-0.147-0.216-0.244-0.308-1.283-1.219-2.804-2.063-4.646-2.582-0.916-0.258-1.856-0.399-2.664-0.511-0.117-0.016-0.242-0.012-0.374-0.006-0.064 0.002-0.128 0.005-0.192 0.005-0.005 0-0.012 0-0.019 0-0.199 0-0.199 0.006-0.205 0.26-0.017 0.673-0.011 1.372-0.003 1.988 0 0.148 0 0.295-0.003 0.443-0.007 0.322-0.011 0.654 0.030 0.975 0.011 0.085-0.050 0.163-0.136 0.174-0.084 0.009-0.164-0.050-0.175-0.135-0.044-0.343-0.037-0.687-0.033-1.020 0.003-0.145 0.005-0.291 0.003-0.435-0.006-0.619-0.014-1.32 0.003-1.999 0.009-0.35 0.050-0.563 0.533-0.563h0.003c0.059 0 0.121-0.002 0.18-0.005 0.139-0.005 0.283-0.011 0.428 0.009 0.819 0.113 1.771 0.256 2.707 0.521 1.894 0.533 3.457 1.402 4.778 2.656 0.125 0.12 0.283 0.267 0.331 0.455 0.070 0.27 0.231 0.317 0.567 0.319 0.644 0.003 1.494 0.006 2.357 0 0.514 0.002 1.002 0.107 1.485 0.339 0.595 0.286 1.053 0.693 1.358 1.208 0.286 0.483 0.642 1.083 0.447 1.811 0.005 0.009 0.008 0.017 0.011 0.025 0.072 0.176 0.071 0.35 0.071 0.518 0 0.56 0 1.11 0 1.658v0.55c0 0.224 0 0.448-0.003 0.67-0.003 0.501-0.008 1.017 0.008 1.523 0.011 0.351 0 0.706-0.009 1.049-0.011 0.376-0.022 0.766-0.005 1.147 0.028 0.631 0.022 1.271 0.016 1.892-0.003 0.27-0.006 0.542-0.006 0.813s-0.002 0.547-0.003 0.821c-0.003 0.614-0.008 1.25 0.008 1.871 0.011 0.41 0 0.825-0.011 1.226-0.012 0.482-0.026 0.979-0.002 1.469 0.020 0.412 0.016 0.83 0.011 1.234-0.005 0.347-0.008 0.706 0.003 1.055 0.011 0.306-0.097 0.591-0.302 0.799-0.211 0.216-0.504 0.334-0.824 0.334v0.005z"></path>
    <path fill="#C62828" style="fill: var(--color2, #C62828)" d="M84.355 29.277c-1.174 0-2.201-0.99-2.246-2.17-0.024-0.617 0.214-1.226 0.652-1.674 0.436-0.446 1.019-0.69 1.639-0.681 1.241 0.014 2.227 0.993 2.247 2.229 0 0.006 0 0.011 0 0.017 0 0.005 0 0.009 0 0.014 0.007 1.261-0.994 2.255-2.277 2.265h-0.015zM84.374 25.063c-0.525 0-1.017 0.208-1.388 0.588-0.378 0.387-0.584 0.914-0.564 1.445 0.039 1.017 0.923 1.871 1.933 1.871h0.012c1.11-0.008 1.974-0.866 1.968-1.952 0-0.005 0-0.011 0-0.016s0-0.008 0-0.012c-0.017-1.083-0.852-1.91-1.938-1.924-0.008 0-0.015 0-0.024 0z"></path>
    <path fill="#C62828" style="fill: var(--color2, #C62828)" d="M22.826 29.276c-0.448 0-0.892-0.135-1.282-0.401-0.517-0.354-0.866-0.92-0.958-1.553-0.091-0.622 0.081-1.236 0.484-1.727 0.398-0.488 0.983-0.794 1.602-0.838 0.627-0.045 1.238 0.174 1.722 0.617 0.425 0.39 0.663 0.911 0.728 1.595 0 0.009 0 0.020 0 0.030 0 0.016 0 0.030-0.003 0.045-0.003 0.017-0.008 0.034-0.012 0.051-0.006 0.025-0.012 0.048-0.014 0.073-0.045 0.808-0.517 1.508-1.264 1.871-0.322 0.157-0.664 0.235-1.005 0.235l0.002 0.002zM22.832 25.062c-0.045 0-0.091 0.002-0.138 0.005-0.533 0.039-1.036 0.302-1.381 0.724-0.347 0.424-0.494 0.951-0.417 1.486 0.080 0.547 0.38 1.035 0.825 1.34 0.591 0.404 1.327 0.457 1.971 0.143s1.050-0.916 1.089-1.61c0.003-0.048 0.012-0.090 0.022-0.129l0.006-0.028c-0.058-0.602-0.264-1.057-0.628-1.391-0.384-0.351-0.86-0.541-1.35-0.541l0.002 0.002z"></path>
    <path fill="#C62828" style="fill: var(--color2, #C62828)" d="M11.624 29.276c-0.449 0-0.892-0.135-1.281-0.401-0.517-0.354-0.866-0.92-0.958-1.553-0.091-0.622 0.083-1.234 0.484-1.727 0.399-0.488 0.983-0.794 1.602-0.838 0.627-0.045 1.238 0.174 1.722 0.617 0.425 0.39 0.663 0.911 0.728 1.595 0 0.009 0 0.020 0 0.030 0 0.014 0 0.030-0.003 0.045-0.003 0.017-0.008 0.036-0.012 0.053-0.006 0.023-0.012 0.048-0.014 0.071-0.045 0.808-0.517 1.508-1.264 1.871-0.322 0.157-0.664 0.235-1.005 0.235l0.002 0.002zM11.63 25.062c-0.045 0-0.091 0.002-0.138 0.005-0.533 0.039-1.036 0.302-1.382 0.724-0.347 0.424-0.494 0.951-0.417 1.486 0.080 0.547 0.38 1.037 0.825 1.341 0.591 0.404 1.327 0.457 1.971 0.143s1.050-0.915 1.089-1.61c0.003-0.047 0.012-0.090 0.022-0.127 0.002-0.009 0.005-0.019 0.006-0.028-0.058-0.602-0.263-1.057-0.628-1.393-0.384-0.351-0.86-0.541-1.35-0.541h0.002z"></path>
    <path fill="#C62828" style="fill: var(--color2, #C62828)" d="M51.591 22.017c-0.158 0-0.317 0-0.475 0-1.994-0.014-4.018-0.014-6.012 0-0.345 0.003-0.689 0.002-1.035 0-1.436-0.009-2.896-0.009-4.307-0.008h-1.469c-0.086 0-0.156-0.068-0.156-0.154s0.070-0.155 0.156-0.155h1.469c1.413-0.003 2.872-0.003 4.31 0.006 0.344 0.003 0.686 0.003 1.030 0 1.996-0.014 4.019-0.014 6.015 0 0.344 0.002 0.686 0.002 1.030 0 1.602-0.011 11.56-0.008 15.813-0.006h1.869c0.086 0 0.156 0.070 0.156 0.155s-0.070 0.155-0.156 0.155h-1.869c-4.253-0.002-14.209-0.005-15.811 0.006-0.186 0-0.372 0.002-0.558 0.002v-0.002z"></path>
    <path fill="#C62828" style="fill: var(--color2, #C62828)" d="M42.428 25.185c-1.686 0-4.099-0.023-4.135-0.023-0.086 0-0.156-0.071-0.155-0.157 0-0.085 0.070-0.154 0.156-0.154h0.002c0.675 0.008 5.249 0.047 5.668 0.005 0.34-0.033 0.677-0.019 1.003-0.005 0.18 0.008 0.364 0.016 0.546 0.016 0.531 0 1.622 0 2.952 0.002 3.234 0.005 8.122 0.011 9.444-0.017 0.086 0.003 0.158 0.067 0.16 0.152s-0.067 0.157-0.153 0.159c-1.327 0.026-6.217 0.020-9.452 0.017-1.33-0.002-2.421-0.003-2.952-0.002-0.188 0-0.377-0.008-0.56-0.016-0.315-0.014-0.641-0.028-0.959 0.003-0.153 0.016-0.782 0.020-1.568 0.020h0.003z"></path>
    <path fill="#C62828" style="fill: var(--color2, #C62828)" d="M96.5 25.234h-7.508c-0.086 0-0.156-0.070-0.156-0.155s0.070-0.155 0.156-0.155h7.508c0.086 0 0.156 0.070 0.156 0.155s-0.071 0.155-0.156 0.155z"></path>
    <path fill="#C62828" style="fill: var(--color2, #C62828)" d="M3.655 27.286c0 0-0.005 0-0.006 0-0.086-0.003-0.153-0.075-0.15-0.162 0.041-1.077 0.034-2.173 0.030-3.233-0.003-0.629-0.006-1.281 0-1.923 0-0.085 0.070-0.154 0.156-0.154s0.156 0.072 0.155 0.157c-0.006 0.639-0.003 1.289 0 1.918 0.006 1.063 0.011 2.164-0.030 3.247-0.003 0.084-0.072 0.149-0.156 0.149h0.002z"></path>
    <path fill="#C62828" style="fill: var(--color2, #C62828)" d="M89.971 17.084c-0.009 0-0.020 0-0.031-0.003-0.084-0.017-0.139-0.098-0.123-0.183 0.003-0.019 0.008-0.037 0.012-0.056 0.007-0.022 0.013-0.047 0.013-0.059-0.006-0.434-0.002-0.875 0-1.301 0.006-0.735 0.012-1.495-0.030-2.24-0.005-0.085 0.061-0.159 0.147-0.163 0.084-0.009 0.159 0.061 0.164 0.146 0.042 0.754 0.036 1.519 0.030 2.258-0.003 0.424-0.007 0.864 0 1.295 0 0.054-0.013 0.103-0.022 0.14-0.003 0.012-0.006 0.026-0.010 0.039-0.014 0.075-0.079 0.124-0.153 0.124l0.003 0.003z"></path>
    <path fill="#C62828" style="fill: var(--color2, #C62828)" d="M57.916 29.283h-6.298c-0.086 0-0.156-0.070-0.156-0.155v-4.010c0-0.085 0.070-0.155 0.156-0.155s0.156 0.070 0.156 0.155v3.855h6.142c0.086 0 0.156 0.070 0.156 0.155s-0.070 0.155-0.156 0.155z"></path>
    <path fill="#C62828" style="fill: var(--color2, #C62828)" d="M44.601 25.073c-0.086 0-0.157-0.070-0.157-0.155v-2.947c0-0.085 0.071-0.155 0.157-0.155s0.156 0.070 0.156 0.155v2.947c0 0.085-0.070 0.155-0.156 0.155z"></path>
    <path fill="#C62828" style="fill: var(--color2, #C62828)" d="M90.324 19.664l-2.241-0.014c-0.086 0-0.156-0.070-0.155-0.157 0-0.085 0.070-0.154 0.156-0.154l2.241 0.014c0.086 0 0.156 0.070 0.155 0.157 0 0.085-0.070 0.154-0.156 0.154z"></path>
    <path fill="#C62828" style="fill: var(--color2, #C62828)" d="M62.048 31.733c-0.547 0-1.102-0.096-1.639-0.298-2.004-0.755-3.212-2.61-3.080-4.724 0.116-1.862 1.377-3.522 3.14-4.131 0.448-0.155 0.908-0.218 1.353-0.277l0.123-0.017c0.013 0 0.025-0.002 0.036 0 0.008 0 0.017 0 0.026 0 0.080 0.006 0.16 0.009 0.239 0.014 0.178 0.009 0.361 0.017 0.542 0.050 1.514 0.27 2.779 1.18 3.468 2.493 0.68 1.295 0.714 2.806 0.097 4.142-0.794 1.716-2.511 2.748-4.304 2.748h-0.002zM61.981 22.595l-0.119 0.016c-0.448 0.061-0.872 0.118-1.292 0.263-1.644 0.569-2.822 2.119-2.93 3.856-0.123 1.976 1.008 3.707 2.88 4.413 2.144 0.808 4.582-0.197 5.55-2.288 0.578-1.25 0.545-2.659-0.089-3.869-0.644-1.23-1.829-2.078-3.246-2.331-0.162-0.030-0.328-0.037-0.503-0.045-0.083-0.005-0.164-0.008-0.247-0.014h-0.003z"></path>
    <path fill="#C62828" style="fill: var(--color2, #C62828)" d="M11.717 31.739c-0.33 0-0.669-0.034-1.016-0.104-2.438-0.488-4.062-2.683-3.776-5.108 0.216-1.829 1.205-3.135 2.944-3.881 0.525-0.225 1.077-0.291 1.611-0.353l0.056-0.006c0.011 0 0.022 0 0.033 0 0.006 0 0.014 0 0.022 0 1.236 0.051 2.243 0.418 3.074 1.121 1.139 0.962 1.71 2.206 1.699 3.698-0.008 1.090-0.367 2.059-1.066 2.882-0.983 1.158-2.207 1.753-3.58 1.753l-0.002-0.002zM11.57 22.595l-0.053 0.006c-0.534 0.064-1.039 0.123-1.524 0.33-1.628 0.699-2.557 1.921-2.757 3.632-0.266 2.261 1.25 4.312 3.527 4.767 1.669 0.334 3.154-0.201 4.295-1.547 0.65-0.766 0.983-1.669 0.991-2.684 0.011-1.396-0.524-2.558-1.589-3.458-0.777-0.656-1.719-0.998-2.883-1.046h-0.006z"></path>
    <path fill="#C62828" style="fill: var(--color2, #C62828)" d="M22.919 31.739c-0.33 0-0.669-0.034-1.016-0.104-2.438-0.488-4.062-2.683-3.776-5.108 0.216-1.829 1.205-3.135 2.944-3.881 0.525-0.225 1.077-0.291 1.611-0.353l0.056-0.006c0.011 0 0.022 0 0.033 0 0.006 0 0.014 0 0.022 0 1.236 0.051 2.243 0.418 3.074 1.121 1.139 0.962 1.71 2.206 1.699 3.698-0.008 1.090-0.367 2.059-1.066 2.882-0.983 1.158-2.207 1.753-3.58 1.753l-0.002-0.002zM22.773 22.595l-0.053 0.006c-0.534 0.064-1.039 0.123-1.524 0.33-1.628 0.699-2.557 1.921-2.757 3.632-0.266 2.261 1.25 4.312 3.527 4.767 1.669 0.334 3.154-0.201 4.295-1.547 0.65-0.766 0.983-1.669 0.991-2.684 0.011-1.396-0.524-2.558-1.589-3.458-0.777-0.656-1.719-0.998-2.883-1.046h-0.006z"></path>
    <path fill="#C62828" style="fill: var(--color2, #C62828)" d="M62.071 29.277c-0.131 0-0.264-0.011-0.398-0.034-0.725-0.124-1.327-0.567-1.654-1.215-0.325-0.645-0.322-1.382 0.006-2.022 0.364-0.71 0.989-1.133 1.857-1.256 0.012-0.002 0.025-0.002 0.037 0 0.003 0 0.006 0 0.010 0 0.292-0.008 0.591 0.042 0.911 0.154 0.994 0.347 1.783 1.478 1.386 2.771-0.3 0.976-1.172 1.606-2.157 1.606l0.002-0.003zM61.92 25.057c-0.769 0.11-1.297 0.466-1.616 1.088-0.283 0.552-0.285 1.188-0.005 1.742 0.281 0.56 0.802 0.942 1.427 1.049 0.999 0.171 1.905-0.385 2.203-1.355 0.342-1.114-0.337-2.087-1.191-2.386-0.284-0.099-0.544-0.145-0.798-0.137-0.006 0-0.012 0-0.019 0l-0.002-0.002z"></path>
    <path fill="#C62828" style="fill: var(--color2, #C62828)" d="M34.189 29.277c-0.228 0-0.458-0.033-0.685-0.101-0.63-0.188-1.144-0.637-1.411-1.233-0.269-0.597-0.266-1.271 0.008-1.851 0.363-0.768 0.981-1.208 1.893-1.346 0.013-0.002 0.025-0.003 0.039 0 0.008 0 0.017 0 0.025 0 0.042 0.003 0.084 0.005 0.128 0.008 0.097 0.005 0.197 0.009 0.297 0.025 1.196 0.18 2.035 1.195 1.953 2.361-0.050 0.718-0.406 1.354-0.975 1.745-0.375 0.258-0.817 0.392-1.272 0.392zM34.034 25.057c-0.806 0.123-1.331 0.496-1.649 1.169-0.234 0.497-0.238 1.077-0.006 1.592 0.233 0.521 0.666 0.897 1.216 1.062 0.589 0.176 1.203 0.085 1.689-0.249 0.491-0.337 0.799-0.889 0.841-1.511 0.070-1.003-0.655-1.876-1.688-2.033-0.084-0.012-0.173-0.017-0.266-0.022-0.045-0.002-0.089-0.005-0.134-0.008h-0.003z"></path>
    </symbol>
    
    <symbol id="icon-gift" viewBox="0 0 31 32">
        <path d="M15.652 5.243c0.706-0.204 1.452-0.218 2.165-0.041s1.367 0.538 1.896 1.047c0.529 0.509 0.914 1.149 1.118 1.855s0.217 1.453 0.040 2.165l4.558-1.315 0.579 2.010-2.010 0.579 2.897 10.048c0.077 0.266 0.045 0.553-0.089 0.795s-0.359 0.422-0.626 0.499l-16.077 4.635c-0.266 0.077-0.553 0.045-0.795-0.089s-0.422-0.359-0.499-0.626l-2.897-10.048-2.010 0.579-0.579-2.010 4.558-1.313c-0.747-0.72-1.201-1.691-1.272-2.726s0.245-2.060 0.886-2.875c0.642-0.815 1.563-1.363 2.586-1.537s2.074 0.039 2.949 0.596c0.253-0.537 0.618-1.014 1.070-1.399s0.981-0.668 1.552-0.832zM13.95 14.44l-6.029 1.738 2.607 9.043 6.029-1.738-2.607-9.043zM21.989 12.123l-6.029 1.738 2.607 9.043 6.029-1.738-2.607-9.043zM10.202 8.991c-0.522 0.148-0.966 0.493-1.239 0.963s-0.352 1.026-0.221 1.553c0.131 0.527 0.461 0.982 0.921 1.27s1.014 0.385 1.545 0.272l0.152-0.038 2.010-0.579-0.579-2.010c-0.138-0.48-0.444-0.895-0.862-1.169s-0.92-0.39-1.416-0.326l-0.16 0.026-0.151 0.038zM16.231 7.253c-0.507 0.146-0.94 0.478-1.213 0.93s-0.364 0.99-0.256 1.507l0.038 0.152 0.579 2.010 2.010-0.579c0.507-0.146 0.94-0.478 1.213-0.93s0.364-0.99 0.256-1.507l-0.038-0.152c-0.154-0.533-0.513-0.983-0.998-1.251s-1.058-0.333-1.591-0.179z"></path>
    </symbol>
    
    <symbol id="icon-menu" viewBox="0 0 35 32">
        <path d="M0.8 1.066h33.6v3.733h-33.6v-3.733zM0.8 14.133h33.6v3.733h-33.6v-3.733zM0.8 27.2h33.6v3.733h-33.6v-3.733z"></path>
    </symbol>
    
    <symbol id="icon-check-house" viewBox="0 0 32 32">
        <path d="M0.989 9.313l14.226-8.529c0.239-0.143 0.513-0.219 0.791-0.219s0.552 0.076 0.792 0.219l14.212 8.531c0.114 0.068 0.209 0.165 0.274 0.281s0.1 0.246 0.1 0.379v19.563c0 0.408-0.162 0.799-0.451 1.088s-0.68 0.451-1.088 0.451h-27.692c-0.408 0-0.799-0.162-1.088-0.451s-0.451-0.68-0.451-1.088v-19.565c-0-0.133 0.034-0.264 0.1-0.379s0.16-0.212 0.274-0.281zM3.692 11.281v16.718h24.615v-16.72l-12.302-7.385-12.314 7.386zM16.092 19.843l8.148-6.866 1.982 2.354-10.108 8.518-10.323-8.508 1.957-2.375 8.345 6.877z"></path>
    </symbol>
    
    <symbol id="icon-inn" viewBox="0 0 24 32">
        <path d="M0.259 1.408c0.341-0.719 0.986-1.206 1.831-1.383 0.194-0.041 12.628-0.028 12.736 0.013 0.061 0.023 0.218 0.151 0.348 0.283 0.375 0.381 1.318 1.356 2.309 2.39 0.502 0.524 1.084 1.129 1.292 1.345 0.393 0.407 0.553 0.574 2.116 2.202 0.515 0.536 1.147 1.193 1.407 1.459 0.663 0.682 0.851 0.884 0.966 1.038l0.1 0.134v21.066l-0.095 0.309c-0.052 0.17-0.118 0.339-0.147 0.376-0.019 0.024-0.047 0.071-0.075 0.121-0.015 0.027-0.029 0.054-0.041 0.079-0.11 0.227-0.677 0.762-0.938 0.885-0.085 0.040-0.142 0.075-0.2 0.104-0.38 0.191-0.866 0.171-10.176 0.171-9.342 0-9.803 0.018-10.161-0.165-0.052-0.026-0.101-0.057-0.175-0.092-0.51-0.244-0.936-0.731-1.219-1.393-0.094-0.219-0.096-0.281-0.118-3.279l-0.019-2.6h1.244v2.422c0 2.175 0.014 2.922 0.056 3.060 0.074 0.244 0.372 0.576 0.639 0.711l0.216 0.109 19.049-0.001 0.223-0.105c0.273-0.128 0.441-0.293 0.595-0.585l0.118-0.223v-19.983l-4.121-0.024c-2.267-0.013-4.125-0.028-4.13-0.033s-0.057-0.055-0.116-0.11c-0.024-0.022-0.044-0.040-0.063-0.060-0.152-0.165-0.146-0.475-0.146-4.319v-4.084l-11.428 0.004-0.206 0.107c-0.246 0.128-0.551 0.461-0.628 0.686-0.042 0.124-0.058 1.199-0.068 4.587l-0.012 17.841h-1.202l0-17.818c0-4.732 0.001-4.74 0.24-5.245zM18.241 5.275c-0.355-0.367-1.011-1.048-1.457-1.512s-1.082-1.126-1.413-1.47l-0.603-0.624-0.001 3.468-0.001 3.468h3.325c3.123 0 3.321-0.005 3.264-0.076-0.082-0.101-0.178-0.203-1.242-1.308-0.502-0.522-0.983-1.023-1.069-1.114s-0.447-0.465-0.802-0.832z"></path>
        <path d="M3.765 11.922h15.686v1.255h-15.686v-1.255z"></path>
        <path d="M3.765 8.157h8.157v1.255h-8.157v-1.255z"></path>
        <path d="M3.765 15.059h15.686v1.255h-15.686v-1.255z"></path>
        <path d="M3.765 18.824h15.686v1.255h-15.686v-1.255z"></path>
        <path d="M4.311 22.588h1.010v2.861l2.096-2.861h0.954v4.392h-1.004v-2.855l-2.096 2.855h-0.96v-4.392z"></path>
        <path d="M13.492 22.588v4.392h-1.016v-1.801h-1.995v1.801h-1.016v-4.392h1.016v1.732h1.995v-1.732h1.016z"></path>
        <path d="M18.621 22.588v4.392h-1.016v-1.801h-1.995v1.801h-1.016v-4.392h1.016v1.732h1.995v-1.732h1.016z"></path>
    </symbol>
    
    <symbol id="icon-dot" viewBox="0 0 26 32">
        <path d="M22.348 22.348l-9.257 9.257-9.257-9.257c-1.831-1.831-3.078-4.163-3.583-6.703s-0.246-5.172 0.745-7.564 2.669-4.437 4.822-5.875c2.153-1.438 4.684-2.206 7.273-2.206s5.12 0.768 7.273 2.206c2.153 1.438 3.831 3.483 4.822 5.875s1.25 5.024 0.745 7.564c-0.505 2.539-1.752 4.872-3.583 6.703zM13.091 16c0.772 0 1.511-0.306 2.057-0.852s0.852-1.285 0.852-2.057-0.306-1.511-0.852-2.057c-0.546-0.546-1.285-0.852-2.057-0.852s-1.511 0.306-2.057 0.852c-0.546 0.546-0.852 1.286-0.852 2.057s0.306 1.512 0.852 2.057c0.546 0.546 1.286 0.852 2.057 0.852z"></path>
    </symbol>
    
    <symbol id="icon-info" viewBox="0 0 32 32">
        <path d="M14 9.5c0-0.825 0.675-1.5 1.5-1.5h1c0.825 0 1.5 0.675 1.5 1.5v1c0 0.825-0.675 1.5-1.5 1.5h-1c-0.825 0-1.5-0.675-1.5-1.5v-1z"></path>
        <path d="M20 24h-8v-2h2v-6h-2v-2h6v8h2z"></path>
        <path d="M16 0c-8.837 0-16 7.163-16 16s7.163 16 16 16 16-7.163 16-16-7.163-16-16-16zM16 29c-7.18 0-13-5.82-13-13s5.82-13 13-13 13 5.82 13 13-5.82 13-13 13z"></path>
    </symbol>
</svg>
