<svg width="25" height="19" viewBox="0 0 25 19" fill="none" xmlns="http://www.w3.org/2000/svg">
<path d="M7.46378 18.3324C6.06037 18.3324 4.85582 17.9773 3.85014 17.267C2.85014 16.5511 2.08026 15.5199 1.54048 14.1733C1.00639 12.821 0.739347 11.1932 0.739347 9.28977C0.745028 7.38636 1.01491 5.76705 1.54901 4.43182C2.08878 3.09091 2.85866 2.06818 3.85866 1.36364C4.86435 0.659091 6.06605 0.306818 7.46378 0.306818C8.86151 0.306818 10.0632 0.659091 11.0689 1.36364C12.0746 2.06818 12.8445 3.09091 13.3786 4.43182C13.9183 5.77273 14.1882 7.39205 14.1882 9.28977C14.1882 11.1989 13.9183 12.8295 13.3786 14.1818C12.8445 15.5284 12.0746 16.5568 11.0689 17.267C10.0689 17.9773 8.86719 18.3324 7.46378 18.3324ZM7.46378 15.6648C8.55469 15.6648 9.41548 15.1278 10.0462 14.054C10.6825 12.9744 11.0007 11.3864 11.0007 9.28977C11.0007 7.90341 10.8558 6.73864 10.5661 5.79545C10.2763 4.85227 9.86719 4.14205 9.33878 3.66477C8.81037 3.18182 8.18537 2.94034 7.46378 2.94034C6.37855 2.94034 5.5206 3.48011 4.88991 4.55966C4.25923 5.63352 3.94105 7.21023 3.93537 9.28977C3.92969 10.6818 4.06889 11.8523 4.35298 12.8011C4.64276 13.75 5.05185 14.4659 5.58026 14.9489C6.10866 15.4261 6.73651 15.6648 7.46378 15.6648ZM24.1193 0.545454V18H20.9574V3.62216H20.8551L16.7727 6.23011V3.33239L21.1108 0.545454H24.1193Z" fill="#C62828"/>
</svg>
