<svg width="16" height="17" viewBox="0 0 16 17" fill="none" xmlns="http://www.w3.org/2000/svg">
<path d="M7.92287 1.1937L7.92345 1.19324C7.94418 1.17686 7.96957 1.16747 7.99596 1.16641C8.02515 1.16567 8.05369 1.17518 8.07661 1.19329L8.07713 1.1937L13.9991 5.85918C14.6306 6.35687 15 7.11738 15 7.9209V15.875C15 16.167 14.7504 16.4167 14.4583 16.4167H10.2917C9.99964 16.4167 9.75 16.167 9.75 15.875V11.7083C9.75 11.5281 9.6853 11.3443 9.54549 11.2045C9.40567 11.0647 9.22194 11 9.04167 11H6.95833C6.77806 11 6.59433 11.0647 6.45451 11.2045C6.3147 11.3443 6.25 11.5281 6.25 11.7083V15.875C6.25 16.167 6.00036 16.4167 5.70833 16.4167H1.54167C1.24964 16.4167 1 16.167 1 15.875V7.9209C1 7.11738 1.36938 6.35687 2.00089 5.85918L7.92287 1.1937ZM8.30943 1.69482L8 1.45103L7.69057 1.69482L2.15509 6.05598L2.15503 6.05603C1.58313 6.50674 1.25 7.19286 1.25 7.9209V15.6667V16.1667H1.75H5.5H6V15.6667V11.7083C6 11.1866 6.43658 10.75 6.95833 10.75H9.04167C9.56342 10.75 10 11.1866 10 11.7083V15.6667V16.1667H10.5H14.25H14.75V15.6667V7.9209C14.75 7.19286 14.4169 6.50674 13.845 6.05603L13.8449 6.05598L8.30943 1.69482Z" fill="#172245" stroke="#172245"/>
</svg>
