<svg width="32" height="33" viewBox="0 0 32 33" fill="none" xmlns="http://www.w3.org/2000/svg">
<path d="M16.0001 3.1665C9.75075 3.1665 4.66675 8.2505 4.66675 14.4998C4.66675 17.1905 5.63275 19.8018 7.39542 21.8652C7.59675 22.0938 12.3467 27.4912 13.9334 29.0038C14.5127 29.5565 15.2561 29.8332 16.0001 29.8332C16.7441 29.8332 17.4874 29.5565 18.0674 29.0038C19.9121 27.2445 24.4167 22.0805 24.6141 21.8538C26.3674 19.8018 27.3334 17.1905 27.3334 14.4998C27.3334 8.2505 22.2494 3.1665 16.0001 3.1665ZM16.0001 17.8332C14.1594 17.8332 12.6667 16.3405 12.6667 14.4998C12.6667 12.6592 14.1594 11.1665 16.0001 11.1665C17.8407 11.1665 19.3334 12.6592 19.3334 14.4998C19.3334 16.3405 17.8407 17.8332 16.0001 17.8332Z" fill="#C62828"/>
</svg>
