<svg width="50" height="50" viewBox="0 0 50 50" fill="none" xmlns="http://www.w3.org/2000/svg">
<rect width="50" height="50" rx="25" fill="#C62828"/>
<path d="M17.4289 24.84C22.6656 22.5362 29.4423 19.7275 30.3777 19.3387C32.8314 18.3212 33.5844 18.5162 33.2089 20.7696C32.9394 22.3892 32.1614 27.7512 31.5414 31.0887C31.1735 33.0679 30.3481 33.3025 29.0502 32.4462C28.426 32.0342 25.2756 29.9508 24.5919 29.4617C23.9677 29.0158 23.1069 28.4796 24.1864 27.4233C24.5706 27.0471 27.0889 24.6425 29.051 22.7708C29.3081 22.525 28.9852 22.1212 28.6885 22.3183C26.0439 24.0721 22.3773 26.5062 21.9106 26.8233C21.2056 27.3021 20.5285 27.5217 19.3131 27.1725C18.3948 26.9087 17.4977 26.5942 17.1485 26.4742C15.8039 26.0125 16.1231 25.4146 17.4289 24.84Z" fill="white"/>
</svg>
