<svg width="50" height="50" viewBox="0 0 50 50" fill="none" xmlns="http://www.w3.org/2000/svg">
<rect width="50" height="50" rx="25" fill="#C62828"/>
<path d="M25 15C19.485 15 15 19.485 15 25C15 26.595 15.385 28.17 16.115 29.585L15.045 33.415C14.925 33.85 15.05 34.315 15.365 34.635C15.605 34.87 15.925 35 16.25 35C16.365 35 16.475 34.985 16.585 34.955L20.415 33.885C21.83 34.615 23.41 35 25 35C30.515 35 35 30.515 35 25C35 19.485 30.515 15 25 15ZM30.18 28.685C29.96 29.3 28.88 29.895 28.395 29.94C27.91 29.985 27.455 30.16 25.225 29.28C22.535 28.22 20.835 25.465 20.705 25.285C20.57 25.11 19.625 23.855 19.625 22.55C19.625 21.25 20.31 20.61 20.55 20.345C20.795 20.08 21.08 20.015 21.255 20.015C21.435 20.015 21.61 20.015 21.765 20.02C21.95 20.03 22.16 20.04 22.36 20.48C22.595 21 23.11 22.31 23.175 22.445C23.24 22.575 23.285 22.73 23.195 22.905C23.11 23.08 23.065 23.19 22.93 23.345C22.8 23.5 22.655 23.69 22.535 23.81C22.405 23.94 22.265 24.085 22.42 24.35C22.575 24.615 23.105 25.48 23.89 26.18C24.9 27.08 25.75 27.36 26.015 27.495C26.28 27.625 26.435 27.605 26.59 27.425C26.745 27.25 27.25 26.655 27.43 26.39C27.605 26.125 27.78 26.17 28.025 26.26C28.265 26.345 29.565 26.985 29.83 27.12C30.095 27.25 30.27 27.315 30.335 27.425C30.4 27.535 30.4 28.065 30.18 28.685Z" fill="white"/>
</svg>
